<?xml version="1.0" standalone="yes"?>
<svg xmlns="http://www.w3.org/2000/svg" width="512" height="512">
<path style="fill:none; stroke:none;" d="M0 0L0 512L512 512L512 0L0 0z"/>
<path style="fill:#f9e4e4; stroke:none;" d="M250 85C252.613 86.0977 255.164 85.9928 258 86C255.387 84.9023 252.836 85.0072 250 85z"/>
<path style="fill:#fddbdb; stroke:none;" d="M247 86C248.248 86.6848 248.548 86.7488 250 87C248.752 86.3152 248.452 86.2512 247 86z"/>
<path style="fill:#fc8b8b; stroke:none;" d="M250 86C252.613 87.0977 255.164 86.9928 258 87C255.387 85.9023 252.836 86.0072 250 86z"/>
<path style="fill:#fec0c0; stroke:none;" d="M258 86C259.248 86.6848 259.548 86.7488 261 87C259.752 86.3152 259.452 86.2512 258 86z"/>
<path style="fill:#fda0a0; stroke:none;" d="M246.667 87.3333C246.222 87.7779 247.278 87.7221 247.333 87.6667C247.778 87.2224 246.722 87.2777 246.667 87.3333z"/>
<path style="fill:#ff5757; stroke:none;" d="M343 147C340.669 142.231 336.19 139.728 332 136.629C324.07 130.764 316.031 125.017 308 119.291C297.969 112.139 288.032 104.859 278 97.7091C270.34 92.2504 263.794 87.1269 254 87.0185C246.989 86.941 243.515 90.1731 238.075 93.973C229.61 99.8857 221.589 106.492 212.961 112.144C176.965 135.726 143.36 163.302 108.004 188.076C87.3865 202.523 67.2903 217.306 47 232.115C36.5577 239.736 25.3093 247.004 29.6381 262C33.1246 274.078 46.5986 278.653 58 275.362C64.6538 273.441 70.4673 267.824 76 263.86C87.0333 255.953 97.9485 247.88 109 240C145.49 213.982 181.559 187.377 218 161.29C227.039 154.819 235.961 148.18 245 141.71C247.811 139.697 252.136 135.272 255.91 135.878C258.016 136.216 259.526 138.154 261.17 139.332C264.986 142.066 268.568 144.441 272.17 147.5C280.093 154.229 289.398 160.434 298 166.321C335.731 192.145 373.028 219.057 409.715 246.438C419.322 253.608 428.902 260.74 438.961 267.209C441.852 269.068 443.997 271.825 447.039 273.468C453.682 277.053 464.306 277.33 470.91 273.442C483.666 265.934 483.485 247.553 472.96 238.465C456.366 224.136 436.779 212.411 419 199.576C413.045 195.277 401.231 189.594 399.318 181.999C398.01 176.808 399 170.332 399 165L399 129C399 123.19 400.931 112.517 394.867 109.028C391.613 107.156 386.605 108 383 108C374.005 108 364.994 107.835 356.001 108.005C352.058 108.079 348.825 108.842 347.514 113.019C345.407 119.732 347.003 129.001 347 136C346.998 140.683 347.454 144.544 343 147z"/>
<path style="fill:#fd7777; stroke:none;" d="M259 87C260.248 87.6848 260.548 87.7488 262 88C260.752 87.3152 260.452 87.2512 259 87z"/>
<path style="fill:#fbd8d8; stroke:none;" d="M262.667 87.3333C262.222 87.7777 263.278 87.7222 263.333 87.6667C263.778 87.2222 262.722 87.2779 262.667 87.3333z"/>
<path style="fill:#fc9797; stroke:none;" d="M244.667 88.3333C244.222 88.7779 245.278 88.7221 245.333 88.6667C245.778 88.2224 244.722 88.2776 244.667 88.3333z"/>
<path style="fill:#fbd9d9; stroke:none;" d="M264.667 88.3333C264.222 88.7777 265.278 88.7223 265.333 88.6667C265.778 88.2223 264.722 88.2778 264.667 88.3333z"/>
<path style="fill:#fd6f6f; stroke:none;" d="M236 94C239.33 94.4499 240.999 92.5288 243 90C240.418 91.0734 238.303 92.4019 236 94z"/>
<path style="fill:#fd9494; stroke:none;" d="M267 90L268 91L267 90z"/>
<path style="fill:#fde6e6; stroke:none;" d="M268 90C269.223 91.1952 269.42 91.3164 271 92C269.777 90.8048 269.58 90.6836 268 90z"/>
<path style="fill:#fcbdbd; stroke:none;" d="M238 92L239 93L238 92z"/>
<path style="fill:#fd9e9e; stroke:none;" d="M270 92L271 93L270 92z"/>
<path style="fill:#fdabab; stroke:none;" d="M273 94L274 95L273 94z"/>
<path style="fill:#fdb4b4; stroke:none;" d="M234 95L235 96L234 95z"/>
<path style="fill:#fc9595; stroke:none;" d="M274 95L275 96L274 95z"/>
<path style="fill:#fd6b6b; stroke:none;" d="M228 101C231.057 99.8155 232.904 98.5179 235 96C231.943 97.1845 230.096 98.4821 228 101z"/>
<path style="fill:#fcc0c0; stroke:none;" d="M231 97L232 98L231 97z"/>
<path style="fill:#fda1a1; stroke:none;" d="M277 97L278 98L277 97z"/>
<path style="fill:#fdafaf; stroke:none;" d="M280 99L281 100L280 99z"/>
<path style="fill:#fcb7b7; stroke:none;" d="M227 100L228 101L227 100z"/>
<path style="fill:#fc9999; stroke:none;" d="M281 100L282 101L281 100z"/>
<path style="fill:#feebeb; stroke:none;" d="M282 100C283.223 101.195 283.42 101.316 285 102C283.777 100.805 283.58 100.684 282 100z"/>
<path style="fill:#fdc4c4; stroke:none;" d="M224 102L225 103L224 102z"/>
<path style="fill:#fda7a7; stroke:none;" d="M284 102L285 103L284 102z"/>
<path style="fill:#fdafaf; stroke:none;" d="M223 103L224 104L223 103z"/>
<path style="fill:#fd6969; stroke:none;" d="M218 107C220.888 107.41 222.115 106.153 224 104C221.778 104.81 220.01 105.739 218 107z"/>
<path style="fill:#fcbaba; stroke:none;" d="M220 105L221 106L220 105z"/>
<path style="fill:#fd9d9d; stroke:none;" d="M288 105L289 106L288 105z"/>
<path style="fill:#fbeded; stroke:none;" d="M353 105C356.959 106.661 361.74 106 366 106L391 106C387.041 104.339 382.26 105 378 105L353 105z"/>
<path style="fill:#fdd3d3; stroke:none;" d="M351.667 106.333C351.222 106.778 352.278 106.722 352.333 106.667C352.778 106.222 351.722 106.278 351.667 106.333z"/>
<path style="fill:#fda1a1; stroke:none;" d="M353 106C356.959 107.661 361.74 107 366 107L390 107C386.041 105.339 381.26 106 377 106L353 106z"/>
<path style="fill:#fec0c0; stroke:none;" d="M390 106C391.248 106.685 391.548 106.749 393 107C391.752 106.315 391.452 106.251 390 106z"/>
<path style="fill:#fcc7c7; stroke:none;" d="M217 107L218 108L217 107z"/>
<path style="fill:#fdaaaa; stroke:none;" d="M291 107L292 108L291 107z"/>
<path style="fill:#fc9797; stroke:none;" d="M350.667 107.333C350.222 107.778 351.278 107.722 351.333 107.667C351.778 107.222 350.722 107.278 350.667 107.333z"/>
<path style="fill:#fd6262; stroke:none;" d="M352 107C356.215 108.769 361.465 108 366 108L393 108C388.785 106.231 383.535 107 379 107L352 107z"/>
<path style="fill:#fec5c5; stroke:none;" d="M393.667 107.333C393.222 107.778 394.278 107.722 394.333 107.667C394.778 107.222 393.722 107.278 393.667 107.333z"/>
<path style="fill:#fdb4b4; stroke:none;" d="M216 108L217 109L216 108z"/>
<path style="fill:#fc9595; stroke:none;" d="M292 108L293 109L292 108z"/>
<path style="fill:#fdacac; stroke:none;" d="M349 108L350 109L349 108z"/>
<path style="fill:#fdadad; stroke:none;" d="M395 108L396 109L395 108z"/>
<path style="fill:#fd6969; stroke:none;" d="M210 114C213.057 112.815 214.904 111.518 217 109C213.943 110.185 212.096 111.482 210 114z"/>
<path style="fill:#faa7a7; stroke:none;" d="M348 109L349 110L348 109z"/>
<path style="fill:#fdaaaa; stroke:none;" d="M396 109L397 110L396 109z"/>
<path style="fill:#fcbfbf; stroke:none;" d="M213 110L214 111L213 110z"/>
<path style="fill:#fda0a0; stroke:none;" d="M295 110L296 111L295 110z"/>
<path style="fill:#fd7e7e; stroke:none;" d="M347 110L347 112C348.635 111.455 348.455 111.635 349 110L347 110z"/>
<path style="fill:#feb7b7; stroke:none;" d="M397 110L398 111L397 110z"/>
<path style="fill:#fba3a3; stroke:none;" d="M346.333 111.667C346.278 111.722 346.222 112.778 346.667 112.333C346.722 112.278 346.778 111.222 346.333 111.667z"/>
<path style="fill:#fdadad; stroke:none;" d="M298 112L299 113L298 112z"/>
<path style="fill:#fd8383; stroke:none;" d="M398.333 112.667C398.278 112.722 398.222 113.778 398.667 113.333C398.722 113.278 398.778 112.222 398.333 112.667z"/>
<path style="fill:#fcb5b5; stroke:none;" d="M209 113L210 114L209 113z"/>
<path style="fill:#fc9797; stroke:none;" d="M299 113L300 114L299 113z"/>
<path style="fill:#dad3d3; stroke:none;" d="M344 113L344 142C347.596 133.431 343.818 122.167 346 113L344 113z"/>
<path style="fill:#fc6767; stroke:none;" d="M346 113L346 134C346 138.661 346.485 142.587 343 146C347.222 146.948 346.977 142.168 346.999 139C347.052 131.292 348.989 120.123 346 113z"/>
<path style="fill:#feb4b4; stroke:none;" d="M399 113L399 185C401.085 180.031 400 173.35 400 168L400 132C400 126.113 401.292 118.462 399 113z"/>
<path style="fill:#f2a5a5; stroke:none;" d="M345 114L345 145C347.497 139.049 346 130.42 346 124C346 120.581 346.328 117.166 345 114z"/>
<path style="fill:#fcc3c3; stroke:none;" d="M206 115L207 116L206 115z"/>
<path style="fill:#fda5a5; stroke:none;" d="M302 115L303 116L302 115z"/>
<path style="fill:#fdacac; stroke:none;" d="M205 116L206 117L205 116z"/>
<path style="fill:#fd6969; stroke:none;" d="M189 128C194.577 128.765 202.611 121.103 206 117C199.761 119.4 194.414 124.122 189 128z"/>
<path style="fill:#fcb9b9; stroke:none;" d="M202 118L203 119L202 118z"/>
<path style="fill:#fc9b9b; stroke:none;" d="M306 118L307 119L306 118z"/>
<path style="fill:#fcc6c6; stroke:none;" d="M199 120L200 121L199 120z"/>
<path style="fill:#fda7a7; stroke:none;" d="M309 120L310 121L309 120z"/>
<path style="fill:#fdb1b1; stroke:none;" d="M198 121L199 122L198 121z"/>
<path style="fill:#fcbebe; stroke:none;" d="M195 123L196 124L195 123z"/>
<path style="fill:#fd9f9f; stroke:none;" d="M313 123L314 124L313 123z"/>
<path style="fill:#fdacac; stroke:none;" d="M316 125L317 126L316 125z"/>
<path style="fill:#fdb4b4; stroke:none;" d="M191 126L192 127L191 126z"/>
<path style="fill:#fc9595; stroke:none;" d="M317 126L318 127L317 126z"/>
<path style="fill:#fcc0c0; stroke:none;" d="M188 128L189 129L188 128z"/>
<path style="fill:#fda2a2; stroke:none;" d="M320 128L321 129L320 128z"/>
<path style="fill:#fdacac; stroke:none;" d="M187 129L188 130L187 129z"/>
<path style="fill:#fcb7b7; stroke:none;" d="M184 131L185 132L184 131z"/>
<path style="fill:#fc9999; stroke:none;" d="M324 131L325 132L324 131z"/>
<path style="fill:#feebeb; stroke:none;" d="M325 131C326.223 132.195 326.42 132.316 328 133C326.777 131.805 326.58 131.684 325 131z"/>
<path style="fill:#fcc6c6; stroke:none;" d="M181 133L182 134L181 133z"/>
<path style="fill:#fda7a7; stroke:none;" d="M327 133L328 134L327 133z"/>
<path style="fill:#fdb0b0; stroke:none;" d="M180 134L181 135L180 134z"/>
<path style="fill:#fd6969; stroke:none;" d="M175 138C177.888 138.41 179.115 137.153 181 135C178.778 135.81 177.01 136.739 175 138z"/>
<path style="fill:#fec1c1; stroke:none;" d="M253 135C254.248 135.685 254.548 135.749 256 136C254.752 135.315 254.452 135.251 253 135z"/>
<path style="fill:#fd6b6b; stroke:none;" d="M256 135C257.223 136.195 257.42 136.316 259 137C257.777 135.805 257.58 135.684 256 135z"/>
<path style="fill:#fcbaba; stroke:none;" d="M177 136L178 137L177 136z"/>
<path style="fill:#fd9d9d; stroke:none;" d="M331 136L332 137L331 136z"/>
<path style="fill:#fd9191; stroke:none;" d="M250 137L251 138L250 137z"/>
<path style="fill:#fdaeae; stroke:none;" d="M258 137L259 138L258 137z"/>
<path style="fill:#fdc8c8; stroke:none;" d="M174 138L175 139L174 138z"/>
<path style="fill:#fda9a9; stroke:none;" d="M249 138L250 139L249 138z"/>
<path style="fill:#fdaaaa; stroke:none;" d="M334 138L335 139L334 138z"/>
<path style="fill:#fdb4b4; stroke:none;" d="M173 139L174 140L173 139z"/>
<path style="fill:#fc9595; stroke:none;" d="M335 139L336 140L335 139z"/>
<path style="fill:#fd6969; stroke:none;" d="M167 145C170.057 143.815 171.904 142.518 174 140C170.943 141.185 169.096 142.482 167 145z"/>
<path style="fill:#fd9a9a; stroke:none;" d="M246 140L247 141L246 140z"/>
<path style="fill:#fdb4b4; stroke:none;" d="M262 140L263 141L262 140z"/>
<path style="fill:#fcbfbf; stroke:none;" d="M170 141L171 142L170 141z"/>
<path style="fill:#fd7575; stroke:none;" d="M264 141C265.223 142.195 265.42 142.316 267 143C265.777 141.805 265.58 141.684 264 141z"/>
<path style="fill:#fda1a1; stroke:none;" d="M338 141L339 142L338 141z"/>
<path style="fill:#fd8d8d; stroke:none;" d="M243 142L244 143L243 142z"/>
<path style="fill:#fda4a4; stroke:none;" d="M242 143L243 144L242 143z"/>
<path style="fill:#febfbf; stroke:none;" d="M266 143L267 144L266 143z"/>
<path style="fill:#fd6c6c; stroke:none;" d="M267 143C268.223 144.195 268.42 144.316 270 145C268.777 143.805 268.58 143.684 267 143z"/>
<path style="fill:#fdacac; stroke:none;" d="M341 143L342 144L341 143z"/>
<path style="fill:#fcb6b6; stroke:none;" d="M166 144L167 145L166 144z"/>
<path style="fill:#fc9797; stroke:none;" d="M342 144L343 145L342 144z"/>
<path style="fill:#f8c9c9; stroke:none;" d="M343.667 144.333C343.222 144.778 344.278 144.722 344.333 144.667C344.778 144.222 343.722 144.278 343.667 144.333z"/>
<path style="fill:#fd9595; stroke:none;" d="M239 145L240 146L239 145z"/>
<path style="fill:#fdb2b2; stroke:none;" d="M269 145L270 146L269 145z"/>
<path style="fill:#fc8888; stroke:none;" d="M343.667 145.333C343.222 145.778 344.278 145.722 344.333 145.667C344.778 145.222 343.722 145.278 343.667 145.333z"/>
<path style="fill:#fcc3c3; stroke:none;" d="M163 146L164 147L163 146z"/>
<path style="fill:#fdadad; stroke:none;" d="M238 146L239 147L238 146z"/>
<path style="fill:#fdacac; stroke:none;" d="M162 147L163 148L162 147z"/>
<path style="fill:#fd6969; stroke:none;" d="M146 159C151.577 159.765 159.611 152.103 163 148C156.761 150.4 151.414 155.122 146 159z"/>
<path style="fill:#fd9f9f; stroke:none;" d="M235 148L236 149L235 148z"/>
<path style="fill:#febbbb; stroke:none;" d="M273 148L274 149L273 148z"/>
<path style="fill:#fcb9b9; stroke:none;" d="M159 149L160 150L159 149z"/>
<path style="fill:#fd9191; stroke:none;" d="M232 150L233 151L232 150z"/>
<path style="fill:#fdacac; stroke:none;" d="M276 150L277 151L276 150z"/>
<path style="fill:#fcc6c6; stroke:none;" d="M156 151L157 152L156 151z"/>
<path style="fill:#fda9a9; stroke:none;" d="M231 151L232 152L231 151z"/>
<path style="fill:#fdb2b2; stroke:none;" d="M155 152L156 153L155 152z"/>
<path style="fill:#fd9a9a; stroke:none;" d="M228 153L229 154L228 153z"/>
<path style="fill:#fdb4b4; stroke:none;" d="M280 153L281 154L280 153z"/>
<path style="fill:#fcbebe; stroke:none;" d="M152 154L153 155L152 154z"/>
<path style="fill:#fd7575; stroke:none;" d="M282 154C283.223 155.195 283.42 155.316 285 156C283.777 154.805 283.58 154.684 282 154z"/>
<path style="fill:#fd8d8d; stroke:none;" d="M225 155L226 156L225 155z"/>
<path style="fill:#fda4a4; stroke:none;" d="M224 156L225 157L224 156z"/>
<path style="fill:#febfbf; stroke:none;" d="M284 156L285 157L284 156z"/>
<path style="fill:#fdb4b4; stroke:none;" d="M148 157L149 158L148 157z"/>
<path style="fill:#fd9595; stroke:none;" d="M221 158L222 159L221 158z"/>
<path style="fill:#fdb2b2; stroke:none;" d="M287 158L288 159L287 158z"/>
<path style="fill:#fcc1c1; stroke:none;" d="M145 159L146 160L145 159z"/>
<path style="fill:#fdadad; stroke:none;" d="M220 159L221 160L220 159z"/>
<path style="fill:#fdacac; stroke:none;" d="M144 160L145 161L144 160z"/>
<path style="fill:#fd6969; stroke:none;" d="M139 164C141.888 164.41 143.115 163.153 145 161C142.778 161.81 141.01 162.739 139 164z"/>
<path style="fill:#fd9f9f; stroke:none;" d="M217 161L218 162L217 161z"/>
<path style="fill:#feb9b9; stroke:none;" d="M291 161L292 162L291 161z"/>
<path style="fill:#fcb9b9; stroke:none;" d="M141 162L142 163L141 162z"/>
<path style="fill:#fd8f8f; stroke:none;" d="M214 163L215 164L214 163z"/>
<path style="fill:#fdacac; stroke:none;" d="M294 163L295 164L294 163z"/>
<path style="fill:#fcc6c6; stroke:none;" d="M138 164L139 165L138 164z"/>
<path style="fill:#fda9a9; stroke:none;" d="M213 164L214 165L213 164z"/>
<path style="fill:#fdc2c2; stroke:none;" d="M295 164L296 165L295 164z"/>
<path style="fill:#fd6e6e; stroke:none;" d="M132 169C135.33 169.45 136.999 167.529 139 165C136.418 166.073 134.303 167.402 132 169z"/>
<path style="fill:#fd9999; stroke:none;" d="M210 166L211 167L210 166z"/>
<path style="fill:#fdb4b4; stroke:none;" d="M298 166L299 167L298 166z"/>
<path style="fill:#fcbdbd; stroke:none;" d="M134 167L135 168L134 167z"/>
<path style="fill:#fdb1b1; stroke:none;" d="M209 167L210 168L209 167z"/>
<path style="fill:#fd8d8d; stroke:none;" d="M207 168L208 169L207 168z"/>
<path style="fill:#fdc8c8; stroke:none;" d="M131 169L132 170L131 169z"/>
<path style="fill:#fda3a3; stroke:none;" d="M206 169L207 170L206 169z"/>
<path style="fill:#febfbf; stroke:none;" d="M302 169L303 170L302 169z"/>
<path style="fill:#fd6b6b; stroke:none;" d="M303 169C304.223 170.195 304.42 170.316 306 171C304.777 169.805 304.58 169.684 303 169z"/>
<path style="fill:#fdb4b4; stroke:none;" d="M130 170L131 171L130 170z"/>
<path style="fill:#fbdada; stroke:none;" d="M254.667 170.333C254.222 170.778 255.278 170.722 255.333 170.667C255.778 170.222 254.722 170.278 254.667 170.333z"/>
<path style="fill:#fd6b6b; stroke:none;" d="M124 176C127.057 174.815 128.904 173.518 131 171C127.943 172.185 126.096 173.482 124 176z"/>
<path style="fill:#fd9595; stroke:none;" d="M203 171L204 172L203 171z"/>
<path style="fill:#ff5757; stroke:none;" d="M253.17 172.157C250.465 173.225 248.475 176.198 245.989 177.741C235.96 183.967 226.536 191.921 216.985 198.99C202.808 209.484 188.533 220.083 174 230.076C170.842 232.247 167.156 233.511 164.09 235.799C153.946 243.369 144.229 251.428 133.83 258.715C123.79 265.749 113.338 272.626 103.91 280.49C100.743 283.132 95.338 285.389 93.6034 289.325C92.3733 292.116 93 296.026 93 299L93 318L93 387L93 441C93 451.306 92.5969 461.828 100.188 469.945C107.188 477.43 117.448 478 127 478L172 478L330 478L374 478C383.04 478 392.457 478.967 401 475.39C408.952 472.062 414.423 464.256 416.181 456C417.699 448.878 417 441.242 417 434L417 398L417 320L417 299C417 295.572 417.661 291.221 415.972 288.09C414.124 284.666 410.068 282.479 407 280.291L388 266.579C365.272 250.329 342.652 233.93 320 217.576C303.658 205.777 287.384 193.881 271 182.14C267.123 179.362 258.293 170.136 253.17 172.157z"/>
<path style="fill:#fdb1b1; stroke:none;" d="M305 171L306 172L305 171z"/>
<path style="fill:#fcc1c1; stroke:none;" d="M127 172L128 173L127 172z"/>
<path style="fill:#fdadad; stroke:none;" d="M202 172L203 173L202 172z"/>
<path style="fill:#fcc7c7; stroke:none;" d="M251 172L252 173L251 172z"/>
<path style="fill:#fda7a7; stroke:none;" d="M257 172L258 173L257 172z"/>
<path style="fill:#fdb4b4; stroke:none;" d="M250 173L251 174L250 173z"/>
<path style="fill:#fd9f9f; stroke:none;" d="M199 174L200 175L199 174z"/>
<path style="fill:#fd6969; stroke:none;" d="M244 179C247.057 177.815 248.904 176.518 251 174C247.943 175.185 246.096 176.482 244 179z"/>
<path style="fill:#feb9b9; stroke:none;" d="M309 174L310 175L309 174z"/>
<path style="fill:#fcb7b7; stroke:none;" d="M123 175L124 176L123 175z"/>
<path style="fill:#fcbebe; stroke:none;" d="M247 175L248 176L247 175z"/>
<path style="fill:#fd9f9f; stroke:none;" d="M261 175L262 176L261 175z"/>
<path style="fill:#fd8f8f; stroke:none;" d="M196 176L197 177L196 176z"/>
<path style="fill:#fdacac; stroke:none;" d="M312 176L313 177L312 176z"/>
<path style="fill:#fcc3c3; stroke:none;" d="M120 177L121 178L120 177z"/>
<path style="fill:#fda7a7; stroke:none;" d="M195 177L196 178L195 177z"/>
<path style="fill:#fdacac; stroke:none;" d="M264 177L265 178L264 177z"/>
<path style="fill:#fdc2c2; stroke:none;" d="M313 177L314 178L313 177z"/>
<path style="fill:#fdacac; stroke:none;" d="M119 178L120 179L119 178z"/>
<path style="fill:#fcb5b5; stroke:none;" d="M243 178L244 179L243 178z"/>
<path style="fill:#fc9595; stroke:none;" d="M265 178L266 179L265 178z"/>
<path style="fill:#fd6969; stroke:none;" d="M103 190C108.577 190.765 116.611 183.103 120 179C113.761 181.4 108.414 186.122 103 190z"/>
<path style="fill:#fd9999; stroke:none;" d="M192 179L193 180L192 179z"/>
<path style="fill:#fdb4b4; stroke:none;" d="M316 179L317 180L316 179z"/>
<path style="fill:#fcb9b9; stroke:none;" d="M116 180L117 181L116 180z"/>
<path style="fill:#fcc3c3; stroke:none;" d="M240 180L241 181L240 180z"/>
<path style="fill:#fda3a3; stroke:none;" d="M268 180L269 181L268 180z"/>
<path style="fill:#fd7474; stroke:none;" d="M318 180C319.223 181.195 319.42 181.316 321 182C319.777 180.805 319.58 180.684 318 180z"/>
<path style="fill:#fd8d8d; stroke:none;" d="M189 181L190 182L189 181z"/>
<path style="fill:#fdacac; stroke:none;" d="M239 181L240 182L239 181z"/>
<path style="fill:#fcc7c7; stroke:none;" d="M113 182L114 183L113 182z"/>
<path style="fill:#fda3a3; stroke:none;" d="M188 182L189 183L188 182z"/>
<path style="fill:#fd6969; stroke:none;" d="M223 193C228.577 193.765 236.611 186.103 240 182C233.761 184.4 228.414 189.122 223 193z"/>
<path style="fill:#febebe; stroke:none;" d="M320 182L321 183L320 182z"/>
<path style="fill:#fd6b6b; stroke:none;" d="M321 182C322.223 183.195 322.42 183.316 324 184C322.777 182.805 322.58 182.684 321 182z"/>
<path style="fill:#fdb4b4; stroke:none;" d="M112 183L113 184L112 183z"/>
<path style="fill:#fcb9b9; stroke:none;" d="M236 183L237 184L236 183z"/>
<path style="fill:#fc9999; stroke:none;" d="M272 183L273 184L272 183z"/>
<path style="fill:#feebeb; stroke:none;" d="M273 183C274.223 184.195 274.42 184.316 276 185C274.777 183.805 274.58 183.684 273 183z"/>
<path style="fill:#fd9595; stroke:none;" d="M185 184L186 185L185 184z"/>
<path style="fill:#fdb1b1; stroke:none;" d="M323 184L324 185L323 184z"/>
<path style="fill:#fcbebe; stroke:none;" d="M109 185L110 186L109 185z"/>
<path style="fill:#fdadad; stroke:none;" d="M184 185L185 186L184 185z"/>
<path style="fill:#fcc6c6; stroke:none;" d="M233 185L234 186L233 185z"/>
<path style="fill:#fda7a7; stroke:none;" d="M275 185L276 186L275 185z"/>
<path style="fill:#fdb2b2; stroke:none;" d="M232 186L233 187L232 186z"/>
<path style="fill:#fd9e9e; stroke:none;" d="M181 187L182 188L181 187z"/>
<path style="fill:#feb9b9; stroke:none;" d="M327 187L328 188L327 187z"/>
<path style="fill:#fcb4b4; stroke:none;" d="M105 188L106 189L105 188z"/>
<path style="fill:#fcbebe; stroke:none;" d="M229 188L230 189L229 188z"/>
<path style="fill:#fd9e9e; stroke:none;" d="M279 188L280 189L279 188z"/>
<path style="fill:#fda5a5; stroke:none;" d="M403 188L404 189L403 188z"/>
<path style="fill:#fd8f8f; stroke:none;" d="M178 189L179 190L178 189z"/>
<path style="fill:#fcc1c1; stroke:none;" d="M102 190L103 191L102 190z"/>
<path style="fill:#fda6a6; stroke:none;" d="M177 190L178 191L177 190z"/>
<path style="fill:#fdacac; stroke:none;" d="M282 190L283 191L282 190z"/>
<path style="fill:#fdc2c2; stroke:none;" d="M331 190L332 191L331 190z"/>
<path style="fill:#fdadad; stroke:none;" d="M101 191L102 192L101 191z"/>
<path style="fill:#fcb4b4; stroke:none;" d="M225 191L226 192L225 191z"/>
<path style="fill:#fc9494; stroke:none;" d="M283 191L284 192L283 191z"/>
<path style="fill:#fc9a9a; stroke:none;" d="M407 191L408 192L407 191z"/>
<path style="fill:#feebeb; stroke:none;" d="M408 191C409.223 192.195 409.42 192.316 411 193C409.777 191.805 409.58 191.684 408 191z"/>
<path style="fill:#fd6969; stroke:none;" d="M89 200C93.837 200.663 99.0831 195.532 102 192C97.2156 193.84 93.2251 197.126 89 200z"/>
<path style="fill:#fd9999; stroke:none;" d="M174 192L175 193L174 192z"/>
<path style="fill:#fdb4b4; stroke:none;" d="M334 192L335 193L334 192z"/>
<path style="fill:#fcb9b9; stroke:none;" d="M98 193L99 194L98 193z"/>
<path style="fill:#fcc1c1; stroke:none;" d="M222 193L223 194L222 193z"/>
<path style="fill:#fda2a2; stroke:none;" d="M286 193L287 194L286 193z"/>
<path style="fill:#fda7a7; stroke:none;" d="M410 193L411 194L410 193z"/>
<path style="fill:#fdacac; stroke:none;" d="M221 194L222 195L221 194z"/>
<path style="fill:#fcc6c6; stroke:none;" d="M95 195L96 196L95 195z"/>
<path style="fill:#fda3a3; stroke:none;" d="M170 195L171 196L170 195z"/>
<path style="fill:#fd6969; stroke:none;" d="M205 206C210.577 206.765 218.611 199.103 222 195C215.761 197.4 210.414 202.122 205 206z"/>
<path style="fill:#febdbd; stroke:none;" d="M338 195L339 196L338 195z"/>
<path style="fill:#fd6b6b; stroke:none;" d="M339 195C340.223 196.195 340.42 196.316 342 197C340.777 195.805 340.58 195.684 339 195z"/>
<path style="fill:#fdb1b1; stroke:none;" d="M94 196L95 197L94 196z"/>
<path style="fill:#fcb9b9; stroke:none;" d="M218 196L219 197L218 196z"/>
<path style="fill:#fc9999; stroke:none;" d="M290 196L291 197L290 196z"/>
<path style="fill:#feebeb; stroke:none;" d="M291 196C292.223 197.195 292.42 197.316 294 198C292.777 196.805 292.58 196.684 291 196z"/>
<path style="fill:#fd9e9e; stroke:none;" d="M414 196L415 197L414 196z"/>
<path style="fill:#fd9393; stroke:none;" d="M167 197L168 198L167 197z"/>
<path style="fill:#fdafaf; stroke:none;" d="M341 197L342 198L341 197z"/>
<path style="fill:#fcbdbd; stroke:none;" d="M91 198L92 199L91 198z"/>
<path style="fill:#fdaaaa; stroke:none;" d="M166 198L167 199L166 198z"/>
<path style="fill:#fcc6c6; stroke:none;" d="M215 198L216 199L215 198z"/>
<path style="fill:#fda7a7; stroke:none;" d="M293 198L294 199L293 198z"/>
<path style="fill:#fd7070; stroke:none;" d="M343 198C344.223 199.195 344.42 199.316 346 200C344.777 198.805 344.58 198.684 343 198z"/>
<path style="fill:#fdaaaa; stroke:none;" d="M417 198L418 199L417 198z"/>
<path style="fill:#fdb1b1; stroke:none;" d="M214 199L215 200L214 199z"/>
<path style="fill:#fc9595; stroke:none;" d="M418 199L419 200L418 199z"/>
<path style="fill:#fdc8c8; stroke:none;" d="M88 200L89 201L88 200z"/>
<path style="fill:#fd9d9d; stroke:none;" d="M163 200L164 201L163 200z"/>
<path style="fill:#feb9b9; stroke:none;" d="M345 200L346 201L345 200z"/>
<path style="fill:#fdb3b3; stroke:none;" d="M87 201L88 202L87 201z"/>
<path style="fill:#fcbebe; stroke:none;" d="M211 201L212 202L211 201z"/>
<path style="fill:#fd9e9e; stroke:none;" d="M297 201L298 202L297 201z"/>
<path style="fill:#fda0a0; stroke:none;" d="M421 201L422 202L421 201z"/>
<path style="fill:#fd6b6b; stroke:none;" d="M81 207C84.0566 205.815 85.9044 204.518 88 202C84.9434 203.185 83.0956 204.482 81 207z"/>
<path style="fill:#fd8f8f; stroke:none;" d="M160 202L161 203L160 202z"/>
<path style="fill:#fdabab; stroke:none;" d="M348 202L349 203L348 202z"/>
<path style="fill:#fcc1c1; stroke:none;" d="M84 203L85 204L84 203z"/>
<path style="fill:#fda6a6; stroke:none;" d="M159 203L160 204L159 203z"/>
<path style="fill:#fdabab; stroke:none;" d="M300 203L301 204L300 203z"/>
<path style="fill:#fdc1c1; stroke:none;" d="M349 203L350 204L349 203z"/>
<path style="fill:#fdadad; stroke:none;" d="M424 203L425 204L424 203z"/>
<path style="fill:#fdb4b4; stroke:none;" d="M207 204L208 205L207 204z"/>
<path style="fill:#fc9595; stroke:none;" d="M301 204L302 205L301 204z"/>
<path style="fill:#fc9797; stroke:none;" d="M425 204L426 205L425 204z"/>
<path style="fill:#fd9696; stroke:none;" d="M156 205L157 206L156 205z"/>
<path style="fill:#fdb4b4; stroke:none;" d="M352 205L353 206L352 205z"/>
<path style="fill:#fcb7b7; stroke:none;" d="M80 206L81 207L80 206z"/>
<path style="fill:#fdafaf; stroke:none;" d="M155 206L156 207L155 206z"/>
<path style="fill:#fcc1c1; stroke:none;" d="M204 206L205 207L204 206z"/>
<path style="fill:#fda1a1; stroke:none;" d="M304 206L305 207L304 206z"/>
<path style="fill:#fda3a3; stroke:none;" d="M428 206L429 207L428 206z"/>
<path style="fill:#fdadad; stroke:none;" d="M203 207L204 208L203 207z"/>
<path style="fill:#fdc3c3; stroke:none;" d="M77 208L78 209L77 208z"/>
<path style="fill:#fda2a2; stroke:none;" d="M152 208L153 209L152 208z"/>
<path style="fill:#fd6969; stroke:none;" d="M187 219C192.577 219.765 200.611 212.103 204 208C197.761 210.4 192.414 215.122 187 219z"/>
<path style="fill:#febdbd; stroke:none;" d="M356 208L357 209L356 208z"/>
<path style="fill:#fd6b6b; stroke:none;" d="M357 208C358.223 209.195 358.42 209.316 360 210C358.777 208.805 358.58 208.684 357 208z"/>
<path style="fill:#fdafaf; stroke:none;" d="M76 209L77 210L76 209z"/>
<path style="fill:#fcb9b9; stroke:none;" d="M200 209L201 210L200 209z"/>
<path style="fill:#fc9898; stroke:none;" d="M308 209L309 210L308 209z"/>
<path style="fill:#feebeb; stroke:none;" d="M309 209C310.223 210.195 310.42 210.316 312 211C310.777 209.805 310.58 209.684 309 209z"/>
<path style="fill:#fc9999; stroke:none;" d="M432 209L433 210L432 209z"/>
<path style="fill:#feebeb; stroke:none;" d="M433 209C434.223 210.195 434.42 210.316 436 211C434.777 209.805 434.58 209.684 433 209z"/>
<path style="fill:#fd6969; stroke:none;" d="M71 213C73.8883 213.41 75.1145 212.153 77 210C74.7778 210.81 73.0098 211.739 71 213z"/>
<path style="fill:#fd9393; stroke:none;" d="M149 210L150 211L149 210z"/>
<path style="fill:#fdafaf; stroke:none;" d="M359 210L360 211L359 210z"/>
<path style="fill:#fcbaba; stroke:none;" d="M73 211L74 212L73 211z"/>
<path style="fill:#fdaaaa; stroke:none;" d="M148 211L149 212L148 211z"/>
<path style="fill:#fcc6c6; stroke:none;" d="M197 211L198 212L197 211z"/>
<path style="fill:#fda7a7; stroke:none;" d="M311 211L312 212L311 211z"/>
<path style="fill:#fd6f6f; stroke:none;" d="M361 211C362.223 212.195 362.42 212.316 364 213C362.777 211.805 362.58 211.684 361 211z"/>
<path style="fill:#fda7a7; stroke:none;" d="M435 211L436 212L435 211z"/>
<path style="fill:#fdb1b1; stroke:none;" d="M196 212L197 213L196 212z"/>
<path style="fill:#fcc7c7; stroke:none;" d="M70 213L71 214L70 213z"/>
<path style="fill:#fd9d9d; stroke:none;" d="M145 213L146 214L145 213z"/>
<path style="fill:#feb7b7; stroke:none;" d="M363 213L364 214L363 213z"/>
<path style="fill:#fdb4b4; stroke:none;" d="M69 214L70 215L69 214z"/>
<path style="fill:#fcbebe; stroke:none;" d="M193 214L194 215L193 214z"/>
<path style="fill:#fd9d9d; stroke:none;" d="M315 214L316 215L315 214z"/>
<path style="fill:#fc9b9b; stroke:none;" d="M439 214L440 215L439 214z"/>
<path style="fill:#feebeb; stroke:none;" d="M440 214C441.223 215.195 441.42 215.316 443 216C441.777 214.805 441.58 214.684 440 214z"/>
<path style="fill:#fd6969; stroke:none;" d="M63 220C66.0566 218.815 67.9044 217.518 70 215C66.9434 216.185 65.0956 217.482 63 220z"/>
<path style="fill:#fd8e8e; stroke:none;" d="M142 215L143 216L142 215z"/>
<path style="fill:#fdabab; stroke:none;" d="M366 215L367 216L366 215z"/>
<path style="fill:#fcbebe; stroke:none;" d="M66 216L67 217L66 216z"/>
<path style="fill:#fda6a6; stroke:none;" d="M141 216L142 217L141 216z"/>
<path style="fill:#fdaaaa; stroke:none;" d="M318 216L319 217L318 216z"/>
<path style="fill:#fdc1c1; stroke:none;" d="M367 216L368 217L367 216z"/>
<path style="fill:#fda7a7; stroke:none;" d="M442 216L443 217L442 216z"/>
<path style="fill:#fdb4b4; stroke:none;" d="M189 217L190 218L189 217z"/>
<path style="fill:#fc9595; stroke:none;" d="M319 217L320 218L319 217z"/>
<path style="fill:#fd9595; stroke:none;" d="M138 218L139 219L138 218z"/>
<path style="fill:#fdb4b4; stroke:none;" d="M370 218L371 219L370 218z"/>
<path style="fill:#fcb4b4; stroke:none;" d="M62 219L63 220L62 219z"/>
<path style="fill:#fdaeae; stroke:none;" d="M137 219L138 220L137 219z"/>
<path style="fill:#fcc1c1; stroke:none;" d="M186 219L187 220L186 219z"/>
<path style="fill:#fda1a1; stroke:none;" d="M322 219L323 220L322 219z"/>
<path style="fill:#fd9e9e; stroke:none;" d="M446 219L447 220L446 219z"/>
<path style="fill:#fdacac; stroke:none;" d="M185 220L186 221L185 220z"/>
<path style="fill:#fcc3c3; stroke:none;" d="M59 221L60 222L59 221z"/>
<path style="fill:#fda2a2; stroke:none;" d="M134 221L135 222L134 221z"/>
<path style="fill:#fd6969; stroke:none;" d="M169 232C174.577 232.765 182.611 225.103 186 221C179.761 223.4 174.414 228.122 169 232z"/>
<path style="fill:#fdafaf; stroke:none;" d="M325 221L326 222L325 221z"/>
<path style="fill:#febcbc; stroke:none;" d="M374 221L375 222L374 221z"/>
<path style="fill:#fd6b6b; stroke:none;" d="M375 221C376.223 222.195 376.42 222.316 378 223C376.777 221.805 376.58 221.684 375 221z"/>
<path style="fill:#fdaaaa; stroke:none;" d="M449 221L450 222L449 221z"/>
<path style="fill:#fdacac; stroke:none;" d="M58 222L59 223L58 222z"/>
<path style="fill:#fcb9b9; stroke:none;" d="M182 222L183 223L182 222z"/>
<path style="fill:#fc9999; stroke:none;" d="M326 222L327 223L326 222z"/>
<path style="fill:#feebeb; stroke:none;" d="M327 222C328.223 223.195 328.42 223.316 330 224C328.777 222.805 328.58 222.684 327 222z"/>
<path style="fill:#fc9595; stroke:none;" d="M450 222L451 223L450 222z"/>
<path style="fill:#fd6969; stroke:none;" d="M39 236C45.1991 236.898 55.2308 227.564 59 223C51.7099 225.804 45.4412 231.618 39 236z"/>
<path style="fill:#fd9393; stroke:none;" d="M131 223L132 224L131 223z"/>
<path style="fill:#fdafaf; stroke:none;" d="M377 223L378 224L377 223z"/>
<path style="fill:#fcb9b9; stroke:none;" d="M55 224L56 225L55 224z"/>
<path style="fill:#fda9a9; stroke:none;" d="M130 224L131 225L130 224z"/>
<path style="fill:#fcc6c6; stroke:none;" d="M179 224L180 225L179 224z"/>
<path style="fill:#fda7a7; stroke:none;" d="M329 224L330 225L329 224z"/>
<path style="fill:#fd6f6f; stroke:none;" d="M379 224C380.223 225.195 380.42 225.316 382 226C380.777 224.805 380.58 224.684 379 224z"/>
<path style="fill:#fda0a0; stroke:none;" d="M453 224L454 225L453 224z"/>
<path style="fill:#fdb1b1; stroke:none;" d="M178 225L179 226L178 225z"/>
<path style="fill:#fcc6c6; stroke:none;" d="M52 226L53 227L52 226z"/>
<path style="fill:#fd9a9a; stroke:none;" d="M127 226L128 227L127 226z"/>
<path style="fill:#feb6b6; stroke:none;" d="M381 226L382 227L381 226z"/>
<path style="fill:#fdadad; stroke:none;" d="M456 226L457 227L456 226z"/>
<path style="fill:#fdb1b1; stroke:none;" d="M51 227L52 228L51 227z"/>
<path style="fill:#fcbdbd; stroke:none;" d="M175 227L176 228L175 227z"/>
<path style="fill:#fd9d9d; stroke:none;" d="M333 227L334 228L333 227z"/>
<path style="fill:#fc9797; stroke:none;" d="M457 227L458 228L457 227z"/>
<path style="fill:#fd8e8e; stroke:none;" d="M124 228L125 229L124 228z"/>
<path style="fill:#fcbdbd; stroke:none;" d="M48 229L49 230L48 229z"/>
<path style="fill:#fda5a5; stroke:none;" d="M123 229L124 230L123 229z"/>
<path style="fill:#fdaaaa; stroke:none;" d="M336 229L337 230L336 229z"/>
<path style="fill:#fec0c0; stroke:none;" d="M385 229L386 230L385 229z"/>
<path style="fill:#fd6c6c; stroke:none;" d="M386 229C387.223 230.195 387.42 230.316 389 231C387.777 229.805 387.58 229.684 386 229z"/>
<path style="fill:#fda3a3; stroke:none;" d="M460 229L461 230L460 229z"/>
<path style="fill:#fdb3b3; stroke:none;" d="M171 230L172 231L171 230z"/>
<path style="fill:#fc9595; stroke:none;" d="M337 230L338 231L337 230z"/>
<path style="fill:#fd9595; stroke:none;" d="M120 231L121 232L120 231z"/>
<path style="fill:#fdb1b1; stroke:none;" d="M388 231L389 232L388 231z"/>
<path style="fill:#fdb4b4; stroke:none;" d="M44 232L45 233L44 232z"/>
<path style="fill:#fdaeae; stroke:none;" d="M119 232L120 233L119 232z"/>
<path style="fill:#fcc0c0; stroke:none;" d="M168 232L169 233L168 232z"/>
<path style="fill:#fda1a1; stroke:none;" d="M340 232L341 233L340 232z"/>
<path style="fill:#fc9898; stroke:none;" d="M464 232L465 233L464 232z"/>
<path style="fill:#feebeb; stroke:none;" d="M465 232C466.223 233.195 466.42 233.316 468 234C466.777 232.805 466.58 232.684 465 232z"/>
<path style="fill:#fdacac; stroke:none;" d="M167 233L168 234L167 233z"/>
<path style="fill:#fcc0c0; stroke:none;" d="M41 234L42 235L41 234z"/>
<path style="fill:#fda0a0; stroke:none;" d="M116 234L117 235L116 234z"/>
<path style="fill:#febbbb; stroke:none;" d="M392 234L393 235L392 234z"/>
<path style="fill:#fd6b6b; stroke:none;" d="M393 234C394.223 235.195 394.42 235.316 396 236C394.777 234.805 394.58 234.684 393 234z"/>
<path style="fill:#fda7a7; stroke:none;" d="M467 234L468 235L467 234z"/>
<path style="fill:#fcb7b7; stroke:none;" d="M164 235L165 236L164 235z"/>
<path style="fill:#fc9999; stroke:none;" d="M344 235L345 236L344 235z"/>
<path style="fill:#feebeb; stroke:none;" d="M345 235C346.223 236.195 346.42 236.316 348 237C346.777 235.805 346.58 235.684 345 235z"/>
<path style="fill:#fd9292; stroke:none;" d="M113 236L114 237L113 236z"/>
<path style="fill:#fdaeae; stroke:none;" d="M395 236L396 237L395 236z"/>
<path style="fill:#fcb8b8; stroke:none;" d="M37 237L38 238L37 237z"/>
<path style="fill:#fda9a9; stroke:none;" d="M112 237L113 238L112 237z"/>
<path style="fill:#fcc6c6; stroke:none;" d="M161 237L162 238L161 237z"/>
<path style="fill:#fda7a7; stroke:none;" d="M347 237L348 238L347 237z"/>
<path style="fill:#fd9999; stroke:none;" d="M471 237L472 238L471 237z"/>
<path style="fill:#fda9a9; stroke:none;" d="M36 238L37 239L36 238z"/>
<path style="fill:#fdb0b0; stroke:none;" d="M160 238L161 239L160 238z"/>
<path style="fill:#fd6a6a; stroke:none;" d="M32 244C34.1357 242.451 35.4511 241.136 37 239C34.3134 240.324 33.3241 241.313 32 244z"/>
<path style="fill:#fd9a9a; stroke:none;" d="M109 239L110 240L109 239z"/>
<path style="fill:#fd6969; stroke:none;" d="M155 242C157.888 242.41 159.115 241.153 161 239C158.778 239.81 157.01 240.739 155 242z"/>
<path style="fill:#feb6b6; stroke:none;" d="M399 239L400 240L399 239z"/>
<path style="fill:#fcbdbd; stroke:none;" d="M157 240L158 241L157 240z"/>
<path style="fill:#fd9d9d; stroke:none;" d="M351 240L352 241L351 240z"/>
<path style="fill:#fd8e8e; stroke:none;" d="M106 241L107 242L106 241z"/>
<path style="fill:#fda5a5; stroke:none;" d="M105 242L106 243L105 242z"/>
<path style="fill:#fdc8c8; stroke:none;" d="M154 242L155 243L154 242z"/>
<path style="fill:#fdaaaa; stroke:none;" d="M354 242L355 243L354 242z"/>
<path style="fill:#fdc0c0; stroke:none;" d="M403 242L404 243L403 242z"/>
<path style="fill:#fd9191; stroke:none;" d="M31.3333 243.667C31.2778 243.722 31.2222 244.778 31.6667 244.333C31.7223 244.278 31.7778 243.222 31.3333 243.667z"/>
<path style="fill:#fdb3b3; stroke:none;" d="M153 243L154 244L153 243z"/>
<path style="fill:#fc9595; stroke:none;" d="M355 243L356 244L355 243z"/>
<path style="fill:#fda2a2; stroke:none;" d="M477 243L478 244L477 243z"/>
<path style="fill:#fd9595; stroke:none;" d="M102 244L103 245L102 244z"/>
<path style="fill:#fd6b6b; stroke:none;" d="M147 249C150.057 247.815 151.904 246.518 154 244C150.943 245.185 149.096 246.482 147 249z"/>
<path style="fill:#fdb2b2; stroke:none;" d="M406 244L407 245L406 244z"/>
<path style="fill:#fd9090; stroke:none;" d="M30.3333 245.667C30.2778 245.722 30.2222 246.778 30.6667 246.333C30.7223 246.278 30.7778 245.222 30.3333 245.667z"/>
<path style="fill:#fdadad; stroke:none;" d="M101 245L102 246L101 245z"/>
<path style="fill:#fcc1c1; stroke:none;" d="M150 245L151 246L150 245z"/>
<path style="fill:#fda1a1; stroke:none;" d="M358 245L359 246L358 245z"/>
<path style="fill:#fd7272; stroke:none;" d="M408 245C409.223 246.195 409.42 246.316 411 247C409.777 245.805 409.58 245.684 408 245z"/>
<path style="fill:#fda4a4; stroke:none;" d="M479.333 246.667C479.278 246.722 479.222 247.778 479.667 247.333C479.722 247.278 479.778 246.222 479.333 246.667z"/>
<path style="fill:#fba1a1; stroke:none;" d="M29.3333 247.667C29.2778 247.722 29.2222 248.778 29.6667 248.333C29.7223 248.278 29.7778 247.222 29.3333 247.667z"/>
<path style="fill:#fd9f9f; stroke:none;" d="M98 247L99 248L98 247z"/>
<path style="fill:#fdadad; stroke:none;" d="M361 247L362 248L361 247z"/>
<path style="fill:#febbbb; stroke:none;" d="M410 247L411 248L410 247z"/>
<path style="fill:#fcb7b7; stroke:none;" d="M146 248L147 249L146 248z"/>
<path style="fill:#fc9898; stroke:none;" d="M362 248L363 249L362 248z"/>
<path style="fill:#feebeb; stroke:none;" d="M363 248C364.223 249.195 364.42 249.316 366 250C364.777 248.805 364.58 248.684 363 248z"/>
<path style="fill:#fecaca; stroke:none;" d="M480 248L480 251C480.696 249.446 480.696 249.554 480 248z"/>
<path style="fill:#ffe9e9; stroke:none;" d="M27 249C27 253.423 26.7406 257.739 28 262C29.004 257.82 27.9591 253.374 29 249L27 249z"/>
<path style="fill:#fd9191; stroke:none;" d="M95 249L96 250L95 249z"/>
<path style="fill:#fe9191; stroke:none;" d="M28 250L28 258C29.1614 255.23 29.1614 252.77 28 250z"/>
<path style="fill:#fda9a9; stroke:none;" d="M94 250L95 251L94 250z"/>
<path style="fill:#fdc4c4; stroke:none;" d="M143 250L144 251L143 250z"/>
<path style="fill:#fda5a5; stroke:none;" d="M365 250L366 251L365 250z"/>
<path style="fill:#fd6f6f; stroke:none;" d="M415 250C416.223 251.195 416.42 251.316 418 252C416.777 250.805 416.58 250.684 415 250z"/>
<path style="fill:#fdafaf; stroke:none;" d="M142 251L143 252L142 251z"/>
<path style="fill:#fd9999; stroke:none;" d="M91 252L92 253L91 252z"/>
<path style="fill:#fd6969; stroke:none;" d="M137 255C139.888 255.41 141.115 254.153 143 252C140.778 252.81 139.01 253.739 137 255z"/>
<path style="fill:#fdb4b4; stroke:none;" d="M417 252L418 253L417 252z"/>
<path style="fill:#f8d7d7; stroke:none;" d="M481 252L481 257C481.83 254.969 481.83 254.03 481 252z"/>
<path style="fill:#fcbaba; stroke:none;" d="M139 253L140 254L139 253z"/>
<path style="fill:#fc9b9b; stroke:none;" d="M369 253L370 254L369 253z"/>
<path style="fill:#fd7575; stroke:none;" d="M419 253C420.223 254.195 420.42 254.316 422 255C420.777 253.805 420.58 253.684 419 253z"/>
<path style="fill:#fd8d8d; stroke:none;" d="M88 254L89 255L88 254z"/>
<path style="fill:#fda4a4; stroke:none;" d="M87 255L88 256L87 255z"/>
<path style="fill:#fdc8c8; stroke:none;" d="M136 255L137 256L136 255z"/>
<path style="fill:#fda9a9; stroke:none;" d="M372 255L373 256L372 255z"/>
<path style="fill:#febfbf; stroke:none;" d="M421 255L422 256L421 255z"/>
<path style="fill:#fd6c6c; stroke:none;" d="M422 255C423.223 256.195 423.42 256.316 425 257C423.777 255.805 423.58 255.684 422 255z"/>
<path style="fill:#fdb4b4; stroke:none;" d="M135 256L136 257L135 256z"/>
<path style="fill:#fc9494; stroke:none;" d="M373 256L374 257L373 256z"/>
<path style="fill:#fd9595; stroke:none;" d="M84 257L85 258L84 257z"/>
<path style="fill:#fd6969; stroke:none;" d="M130 260C132.888 260.41 134.115 259.153 136 257C133.778 257.81 132.01 258.739 130 260z"/>
<path style="fill:#fdb2b2; stroke:none;" d="M424 257L425 258L424 257z"/>
<path style="fill:#f5b1b1; stroke:none;" d="M28.3333 258.667C28.2778 258.722 28.2222 259.778 28.6667 259.333C28.7222 259.278 28.7778 258.222 28.3333 258.667z"/>
<path style="fill:#fdadad; stroke:none;" d="M83 258L84 259L83 258z"/>
<path style="fill:#fcc1c1; stroke:none;" d="M132 258L133 259L132 258z"/>
<path style="fill:#fd9999; stroke:none;" d="M245 258C250.222 260.191 257.368 259 263 259C257.778 256.809 250.632 258 245 258z"/>
<path style="fill:#fda0a0; stroke:none;" d="M376 258L377 259L376 258z"/>
<path style="fill:#fea0a0; stroke:none;" d="M480.333 258.667C480.278 258.722 480.222 259.778 480.667 259.333C480.722 259.278 480.778 258.222 480.333 258.667z"/>
<path style="fill:#fd7777; stroke:none;" d="M237 259C238.248 259.685 238.549 259.749 240 260C238.752 259.315 238.452 259.251 237 259z"/>
<path style="fill:#fd9a9a; stroke:none;" d="M240 259C241.248 259.685 241.549 259.749 243 260C241.752 259.315 241.452 259.251 240 259z"/>
<path style="fill:#fed7d7; stroke:none;" d="M243 259C244.506 259.683 245.315 259.826 247 260C245.494 259.317 244.685 259.174 243 259z"/>
<path style="fill:#fdf0f0; stroke:none;" d="M247 259C251.724 260.982 257.91 260 263 260C258.276 258.018 252.09 259 247 259z"/>
<path style="fill:#fec7c7; stroke:none;" d="M263 259C264.248 259.685 264.548 259.749 266 260C264.752 259.315 264.452 259.251 263 259z"/>
<path style="fill:#fd9f9f; stroke:none;" d="M266 259C267.248 259.685 267.548 259.749 269 260C267.752 259.315 267.452 259.251 266 259z"/>
<path style="fill:#fd7e7e; stroke:none;" d="M269 259C270.248 259.685 270.548 259.749 272 260C270.752 259.315 270.452 259.251 269 259z"/>
<path style="fill:#fd9f9f; stroke:none;" d="M80 260L81 261L80 260z"/>
<path style="fill:#fd8080; stroke:none;" d="M233 260C234.248 260.685 234.548 260.749 236 261C234.752 260.315 234.452 260.251 233 260z"/>
<path style="fill:#febbbb; stroke:none;" d="M236.667 260.333C236.222 260.778 237.278 260.722 237.333 260.667C237.778 260.222 236.722 260.278 236.667 260.333z"/>
<path style="fill:#ffffff; stroke:none;" d="M238 260.465C226.387 262.555 213.479 267.634 204 274.63C187.938 286.484 176.159 302.692 170.746 322C161.116 356.35 174.645 398.398 205 418.164C213.671 423.81 223.891 428.222 234 430.486C244.558 432.851 258.299 433.424 269 431.675C291.383 428.018 312.475 415.63 325.56 397C345.329 368.853 346.332 325.683 326.955 297.05C314.558 278.732 297.509 268.71 277 262.164C265.803 258.59 249.612 258.375 238 260.465z"/>
<path style="fill:#fdafaf; stroke:none;" d="M271.667 260.333C271.222 260.778 272.278 260.722 272.333 260.667C272.778 260.222 271.722 260.278 271.667 260.333z"/>
<path style="fill:#fd8585; stroke:none;" d="M273 260C274.248 260.685 274.548 260.749 276 261C274.752 260.315 274.452 260.251 273 260z"/>
<path style="fill:#fdacac; stroke:none;" d="M379 260L380 261L379 260z"/>
<path style="fill:#febbbb; stroke:none;" d="M428 260L429 261L428 260z"/>
<path style="fill:#fecece; stroke:none;" d="M480.333 260.667C480.278 260.722 480.222 261.778 480.667 261.333C480.722 261.278 480.778 260.222 480.333 260.667z"/>
<path style="fill:#fcb5b5; stroke:none;" d="M128 261L129 262L128 261z"/>
<path style="fill:#fd8b8b; stroke:none;" d="M230.667 261.333C230.222 261.778 231.278 261.722 231.333 261.667C231.778 261.222 230.722 261.278 230.667 261.333z"/>
<path style="fill:#fec2c2; stroke:none;" d="M232.667 261.333C232.222 261.778 233.278 261.722 233.333 261.667C233.778 261.222 232.722 261.278 232.667 261.333z"/>
<path style="fill:#fdb2b2; stroke:none;" d="M275.667 261.333C275.222 261.778 276.278 261.722 276.333 261.667C276.778 261.222 275.722 261.278 275.667 261.333z"/>
<path style="fill:#fd8181; stroke:none;" d="M277.667 261.333C277.222 261.778 278.278 261.722 278.333 261.667C278.778 261.222 277.722 261.278 277.667 261.333z"/>
<path style="fill:#fd9595; stroke:none;" d="M380 261L381 262L380 261z"/>
<path style="fill:#feeaea; stroke:none;" d="M381 261C382.223 262.195 382.42 262.316 384 263C382.777 261.805 382.58 261.684 381 261z"/>
<path style="fill:#fbc3c3; stroke:none;" d="M29.3333 262.667C29.2778 262.722 29.2222 263.778 29.6667 263.333C29.7222 263.278 29.7778 262.222 29.3333 262.667z"/>
<path style="fill:#fd9191; stroke:none;" d="M77 262L78 263L77 262z"/>
<path style="fill:#fd7e7e; stroke:none;" d="M226 262C227.248 262.685 227.549 262.749 229 263C227.752 262.315 227.452 262.251 226 262z"/>
<path style="fill:#fecfcf; stroke:none;" d="M229.667 262.333C229.222 262.778 230.278 262.722 230.333 262.667C230.778 262.222 229.722 262.278 229.667 262.333z"/>
<path style="fill:#fed9d9; stroke:none;" d="M277 262C278.248 262.685 278.548 262.749 280 263C278.752 262.315 278.452 262.251 277 262z"/>
<path style="fill:#fd8787; stroke:none;" d="M280.667 262.333C280.222 262.778 281.278 262.722 281.333 262.667C281.778 262.222 280.722 262.278 280.667 262.333z"/>
<path style="fill:#fda8a8; stroke:none;" d="M76 263L77 264L76 263z"/>
<path style="fill:#fdc3c3; stroke:none;" d="M125 263L126 264L125 263z"/>
<path style="fill:#fd9a9a; stroke:none;" d="M224.667 263.333C224.222 263.778 225.278 263.722 225.333 263.667C225.778 263.222 224.722 263.278 224.667 263.333z"/>
<path style="fill:#fed6d6; stroke:none;" d="M226.667 263.333C226.222 263.778 227.278 263.722 227.333 263.667C227.778 263.222 226.722 263.278 226.667 263.333z"/>
<path style="fill:#fec6c6; stroke:none;" d="M281.667 263.333C281.222 263.778 282.278 263.722 282.333 263.667C282.778 263.222 281.722 263.278 281.667 263.333z"/>
<path style="fill:#fd8c8c; stroke:none;" d="M283.667 263.333C283.222 263.778 284.278 263.722 284.333 263.667C284.778 263.222 283.722 263.278 283.667 263.333z"/>
<path style="fill:#fda5a5; stroke:none;" d="M383 263L384 264L383 263z"/>
<path style="fill:#fdc2c2; stroke:none;" d="M432 263L433 264L432 263z"/>
<path style="fill:#fddada; stroke:none;" d="M479.333 263.667C479.278 263.722 479.222 264.778 479.667 264.333C479.722 264.278 479.778 263.222 479.333 263.667z"/>
<path style="fill:#fdbfbf; stroke:none;" d="M30.3333 264.667C30.2778 264.722 30.2222 265.778 30.6667 265.333C30.7222 265.278 30.7778 264.222 30.3333 264.667z"/>
<path style="fill:#fdafaf; stroke:none;" d="M124 264L125 265L124 264z"/>
<path style="fill:#fd9191; stroke:none;" d="M221.667 264.333C221.222 264.778 222.278 264.722 222.333 264.667C222.778 264.222 221.722 264.278 221.667 264.333z"/>
<path style="fill:#fed7d7; stroke:none;" d="M223.667 264.333C223.222 264.778 224.278 264.722 224.333 264.667C224.778 264.222 223.722 264.278 223.667 264.333z"/>
<path style="fill:#fda2a2; stroke:none;" d="M285.667 264.333C285.222 264.778 286.278 264.722 286.333 264.667C286.778 264.222 285.722 264.278 285.667 264.333z"/>
<path style="fill:#fd9a9a; stroke:none;" d="M73 265L74 266L73 265z"/>
<path style="fill:#fd6969; stroke:none;" d="M119 268C121.888 268.41 123.115 267.153 125 265C122.778 265.81 121.01 266.739 119 268z"/>
<path style="fill:#fda6a6; stroke:none;" d="M219.667 265.333C219.222 265.778 220.278 265.722 220.333 265.667C220.778 265.222 219.722 265.278 219.667 265.333z"/>
<path style="fill:#fd9090; stroke:none;" d="M288.667 265.333C288.222 265.778 289.278 265.722 289.333 265.667C289.778 265.222 288.722 265.278 288.667 265.333z"/>
<path style="fill:#fdb4b4; stroke:none;" d="M435 265L436 266L435 265z"/>
<path style="fill:#fddada; stroke:none;" d="M478.333 265.667C478.278 265.722 478.222 266.778 478.667 266.333C478.722 266.278 478.778 265.222 478.333 265.667z"/>
<path style="fill:#fdcbcb; stroke:none;" d="M31.3333 266.667C31.2778 266.722 31.2223 267.778 31.6667 267.333C31.7222 267.278 31.7778 266.222 31.3333 266.667z"/>
<path style="fill:#fcbaba; stroke:none;" d="M121 266L122 267L121 266z"/>
<path style="fill:#fdb1b1; stroke:none;" d="M217.667 266.333C217.222 266.778 218.278 266.722 218.333 266.667C218.778 266.222 217.722 266.278 217.667 266.333z"/>
<path style="fill:#fc9999; stroke:none;" d="M290.667 266.333C290.222 266.778 291.278 266.722 291.333 266.667C291.778 266.222 290.722 266.278 290.667 266.333z"/>
<path style="fill:#fd9999; stroke:none;" d="M387 266L388 267L387 266z"/>
<path style="fill:#fd7676; stroke:none;" d="M437 266C438.223 267.195 438.42 267.316 440 268C438.777 266.805 438.58 266.684 437 266z"/>
<path style="fill:#fd8c8c; stroke:none;" d="M70 267L71 268L70 267z"/>
<path style="fill:#fdb3b3; stroke:none;" d="M215.667 267.333C215.222 267.778 216.278 267.722 216.333 267.667C216.778 267.222 215.722 267.278 215.667 267.333z"/>
<path style="fill:#fc9999; stroke:none;" d="M292.667 267.333C292.222 267.778 293.278 267.722 293.333 267.667C293.778 267.222 292.722 267.278 292.667 267.333z"/>
<path style="fill:#fbb3b3; stroke:none;" d="M32 268L33 269L32 268z"/>
<path style="fill:#fda3a3; stroke:none;" d="M69 268L70 269L69 268z"/>
<path style="fill:#fcc7c7; stroke:none;" d="M118 268L119 269L118 268z"/>
<path style="fill:#fedbdb; stroke:none;" d="M214.667 268.333C214.222 268.778 215.278 268.722 215.333 268.667C215.778 268.222 214.722 268.278 214.667 268.333z"/>
<path style="fill:#fd9595; stroke:none;" d="M294.667 268.333C294.222 268.778 295.278 268.722 295.333 268.667C295.778 268.222 294.722 268.278 294.667 268.333z"/>
<path style="fill:#fda7a7; stroke:none;" d="M390 268L391 269L390 268z"/>
<path style="fill:#fdbfbf; stroke:none;" d="M439 268L440 269L439 268z"/>
<path style="fill:#fd6b6b; stroke:none;" d="M440 268C441.223 269.195 441.42 269.316 443 270C441.777 268.805 441.58 268.684 440 268z"/>
<path style="fill:#fda1a1; stroke:none;" d="M476 268L477 269L476 268z"/>
<path style="fill:#fda5a5; stroke:none;" d="M33 269L34 270L33 269z"/>
<path style="fill:#fdb3b3; stroke:none;" d="M117 269L118 270L117 269z"/>
<path style="fill:#fed7d7; stroke:none;" d="M212.667 269.333C212.222 269.778 213.278 269.722 213.333 269.667C213.778 269.222 212.722 269.278 212.667 269.333z"/>
<path style="fill:#fd8c8c; stroke:none;" d="M296.667 269.333C296.222 269.778 297.278 269.722 297.333 269.667C297.778 269.222 296.722 269.278 296.667 269.333z"/>
<path style="fill:#fd9292; stroke:none;" d="M475 269L476 270L475 269z"/>
<path style="fill:#fd9f9f; stroke:none;" d="M34 270L35 271L34 270z"/>
<path style="fill:#fd9595; stroke:none;" d="M66 270L67 271L66 270z"/>
<path style="fill:#fd6969; stroke:none;" d="M111 275C114.057 273.815 115.904 272.518 118 270C114.943 271.185 113.096 272.482 111 275z"/>
<path style="fill:#fd8383; stroke:none;" d="M298.667 270.333C298.222 270.778 299.278 270.722 299.333 270.667C299.778 270.222 298.722 270.278 298.667 270.333z"/>
<path style="fill:#fdb2b2; stroke:none;" d="M442 270L443 271L442 270z"/>
<path style="fill:#fd8b8b; stroke:none;" d="M474 270L475 271L474 270z"/>
<path style="fill:#fdadad; stroke:none;" d="M65 271L66 272L65 271z"/>
<path style="fill:#fcbfbf; stroke:none;" d="M114 271L115 272L114 271z"/>
<path style="fill:#fd9292; stroke:none;" d="M208 271L209 272L208 271z"/>
<path style="fill:#fd7676; stroke:none;" d="M300.667 271.333C300.222 271.778 301.278 271.722 301.333 271.667C301.778 271.222 300.722 271.278 300.667 271.333z"/>
<path style="fill:#fda0a0; stroke:none;" d="M394 271L395 272L394 271z"/>
<path style="fill:#fdb4b4; stroke:none;" d="M36 272L37 273L36 272z"/>
<path style="fill:#fd7676; stroke:none;" d="M302 272C303.223 273.195 303.42 273.316 305 274C303.777 272.805 303.58 272.684 302 272z"/>
<path style="fill:#fd9999; stroke:none;" d="M472 272L473 273L472 272z"/>
<path style="fill:#fedada; stroke:none;" d="M62.6667 273.333C62.2222 273.778 63.2778 273.722 63.3333 273.667C63.7778 273.222 62.7222 273.278 62.6667 273.333z"/>
<path style="fill:#fd9595; stroke:none;" d="M205 273L206 274L205 273z"/>
<path style="fill:#fdacac; stroke:none;" d="M397 273L398 274L397 273z"/>
<path style="fill:#febfbf; stroke:none;" d="M446 273L447 274L446 273z"/>
<path style="fill:#fd8d8d; stroke:none;" d="M39.6667 274.333C39.2223 274.778 40.2777 274.722 40.3333 274.667C40.7778 274.222 39.7222 274.278 39.6667 274.333z"/>
<path style="fill:#fecccc; stroke:none;" d="M60.6667 274.333C60.2223 274.778 61.2777 274.722 61.3333 274.667C61.7778 274.222 60.7222 274.278 60.6667 274.333z"/>
<path style="fill:#fcb5b5; stroke:none;" d="M110 274L111 275L110 274z"/>
<path style="fill:#fdadad; stroke:none;" d="M204 274L205 275L204 274z"/>
<path style="fill:#fec1c1; stroke:none;" d="M304 274L305 275L304 274z"/>
<path style="fill:#fd6b6b; stroke:none;" d="M305 274C306.223 275.195 306.42 275.316 308 276C306.777 274.805 306.58 274.684 305 274z"/>
<path style="fill:#fd9595; stroke:none;" d="M398 274L399 275L398 274z"/>
<path style="fill:#feeaea; stroke:none;" d="M399 274C400.223 275.195 400.42 275.316 402 276C400.777 274.805 400.58 274.684 399 274z"/>
<path style="fill:#fd8585; stroke:none;" d="M448.667 274.333C448.222 274.778 449.278 274.722 449.333 274.667C449.778 274.222 448.722 274.278 448.667 274.333z"/>
<path style="fill:#fd9494; stroke:none;" d="M41.6667 275.333C41.2222 275.778 42.2778 275.722 42.3333 275.667C42.7778 275.222 41.7222 275.278 41.6667 275.333z"/>
<path style="fill:#fec8c8; stroke:none;" d="M58.6667 275.333C58.2222 275.778 59.2778 275.722 59.3333 275.667C59.7778 275.222 58.7222 275.278 58.6667 275.333z"/>
<path style="fill:#fd8787; stroke:none;" d="M450.667 275.333C450.222 275.778 451.278 275.722 451.333 275.667C451.778 275.222 450.722 275.278 450.667 275.333z"/>
<path style="fill:#fd8383; stroke:none;" d="M465 275C466.248 275.685 466.548 275.749 468 276C466.752 275.315 466.452 275.251 465 275z"/>
<path style="fill:#fed2d2; stroke:none;" d="M42 276C43.2483 276.685 43.5485 276.749 45 277C43.7516 276.315 43.4516 276.251 42 276z"/>
<path style="fill:#fd7878; stroke:none;" d="M45 276C48.1633 277.327 51.5856 277 55 277C51.8367 275.673 48.4144 276 45 276z"/>
<path style="fill:#fdafaf; stroke:none;" d="M55.6667 276.333C55.2223 276.778 56.2778 276.722 56.3333 276.667C56.7778 276.222 55.7222 276.278 55.6667 276.333z"/>
<path style="fill:#fcc3c3; stroke:none;" d="M107 276L108 277L107 276z"/>
<path style="fill:#fd9999; stroke:none;" d="M201 276L202 277L201 276z"/>
<path style="fill:#fdadad; stroke:none;" d="M307 276L308 277L307 276z"/>
<path style="fill:#fda5a5; stroke:none;" d="M401 276L402 277L401 276z"/>
<path style="fill:#fd9f9f; stroke:none;" d="M452.667 276.333C452.222 276.778 453.278 276.722 453.333 276.667C453.778 276.222 452.722 276.278 452.667 276.333z"/>
<path style="fill:#fd7171; stroke:none;" d="M454 276C457.163 277.327 460.586 277 464 277C460.837 275.673 457.414 276 454 276z"/>
<path style="fill:#fec5c5; stroke:none;" d="M464.667 276.333C464.222 276.778 465.278 276.722 465.333 276.667C465.778 276.222 464.722 276.278 464.667 276.333z"/>
<path style="fill:#fec3c3; stroke:none;" d="M48 277C49.769 277.779 51.0359 277.912 53 278C51.231 277.221 49.9641 277.088 48 277z"/>
<path style="fill:#fbadad; stroke:none;" d="M106 277L107 278L106 277z"/>
<path style="fill:#fdaeae; stroke:none;" d="M200 277L201 278L200 277z"/>
<path style="fill:#fec1c1; stroke:none;" d="M308 277L309 278L308 277z"/>
<path style="fill:#febfbf; stroke:none;" d="M453 277C455.613 278.098 458.164 277.993 461 278C458.387 276.902 455.835 277.007 453 277z"/>
<path style="fill:#fd6969; stroke:none;" d="M94 288C98.7226 285.31 103.53 282.201 107 278C102.009 279.92 96.5996 283.246 94 288z"/>
<path style="fill:#fcbaba; stroke:none;" d="M103 279L104 280L103 279z"/>
<path style="fill:#fd9a9a; stroke:none;" d="M405 279L406 280L405 279z"/>
<path style="fill:#fd9191; stroke:none;" d="M196 280L197 281L196 280z"/>
<path style="fill:#fda6a6; stroke:none;" d="M312 280L313 281L312 280z"/>
<path style="fill:#fcc6c6; stroke:none;" d="M100 281L101 282L100 281z"/>
<path style="fill:#fd9898; stroke:none;" d="M195 281L196 282L195 281z"/>
<path style="fill:#fdacac; stroke:none;" d="M313 281L314 282L313 281z"/>
<path style="fill:#fda9a9; stroke:none;" d="M408 281L409 282L408 281z"/>
<path style="fill:#fbb1b1; stroke:none;" d="M99 282L100 283L99 282z"/>
<path style="fill:#fd9797; stroke:none;" d="M194 282L195 283L194 282z"/>
<path style="fill:#fdadad; stroke:none;" d="M314 282L315 283L314 282z"/>
<path style="fill:#fd9797; stroke:none;" d="M193 283L194 284L193 283z"/>
<path style="fill:#fdadad; stroke:none;" d="M315 283L316 284L315 283z"/>
<path style="fill:#fcbebe; stroke:none;" d="M96 284L97 285L96 284z"/>
<path style="fill:#fd9898; stroke:none;" d="M192 284L193 285L192 284z"/>
<path style="fill:#fdadad; stroke:none;" d="M316 284L317 285L316 284z"/>
<path style="fill:#fda0a0; stroke:none;" d="M412 284L413 285L412 284z"/>
<path style="fill:#fd9494; stroke:none;" d="M191 285L192 286L191 285z"/>
<path style="fill:#fda9a9; stroke:none;" d="M317 285L318 286L317 285z"/>
<path style="fill:#fd9393; stroke:none;" d="M190 286L191 287L190 286z"/>
<path style="fill:#fda5a5; stroke:none;" d="M318 286L319 287L318 286z"/>
<path style="fill:#fdadad; stroke:none;" d="M415 286L416 287L415 286z"/>
<path style="fill:#fe9191; stroke:none;" d="M92 287L92 454C93.8752 449.531 93 443.809 93 439L93 410L93 329C93 315.576 90.8843 300.087 94 287L92 287z"/>
<path style="fill:#fd8f8f; stroke:none;" d="M189 287L190 288L189 287z"/>
<path style="fill:#fda1a1; stroke:none;" d="M319 287L320 288L319 287z"/>
<path style="fill:#fc9797; stroke:none;" d="M416 287L417 288L416 287z"/>
<path style="fill:#ffe9e9; stroke:none;" d="M91 288L91 404L91 439C91 445.239 90.2228 451.988 92 458C92.8928 454.283 92.0015 449.884 92 446L92 420L92 336L92 304C92 298.92 92.9806 292.72 91 288z"/>
<path style="fill:#fd9b9b; stroke:none;" d="M320 288L321 289L320 288z"/>
<path style="fill:#fec9c9; stroke:none;" d="M417 288L417 454C418.661 450.041 418 445.26 418 441L418 416L418 330L418 302C418 297.464 418.769 292.215 417 288z"/>
<path style="fill:#fee8e8; stroke:none;" d="M322 291C322.684 292.58 322.805 292.777 324 294C323.316 292.42 323.195 292.223 322 291z"/>
<path style="fill:#fda6a6; stroke:none;" d="M185 292L186 293L185 292z"/>
<path style="fill:#fd9393; stroke:none;" d="M184 293L185 294L184 293z"/>
<path style="fill:#fda4a4; stroke:none;" d="M324 293L325 294L324 293z"/>
<path style="fill:#fd9b9b; stroke:none;" d="M182 296L183 297L182 296z"/>
<path style="fill:#fd9999; stroke:none;" d="M180 299L181 300L180 299z"/>
<path style="fill:#fdd8d8; stroke:none;" d="M328.333 299.667C328.278 299.722 328.222 300.778 328.667 300.333C328.722 300.278 328.778 299.222 328.333 299.667z"/>
<path style="fill:#fddddd; stroke:none;" d="M179.333 301.667C179.278 301.722 179.222 302.778 179.667 302.333C179.722 302.278 179.778 301.222 179.333 301.667z"/>
<path style="fill:#fdc4c4; stroke:none;" d="M330.333 302.667C330.278 302.722 330.222 303.778 330.667 303.333C330.722 303.278 330.778 302.222 330.333 302.667z"/>
<path style="fill:#fd8c8c; stroke:none;" d="M177 304L178 305L177 304z"/>
<path style="fill:#fdc8c8; stroke:none;" d="M331.333 304.667C331.278 304.722 331.222 305.778 331.667 305.333C331.722 305.278 331.778 304.222 331.333 304.667z"/>
<path style="fill:#fd8f8f; stroke:none;" d="M176 306L177 307L176 306z"/>
<path style="fill:#fdcbcb; stroke:none;" d="M332.333 306.667C332.278 306.722 332.222 307.778 332.667 307.333C332.722 307.278 332.778 306.222 332.333 306.667z"/>
<path style="fill:#fec2c2; stroke:none;" d="M175.333 308.667C175.278 308.722 175.222 309.778 175.667 309.333C175.722 309.278 175.778 308.222 175.333 308.667z"/>
<path style="fill:#fac6c6; stroke:none;" d="M333.333 308.667C333.278 308.722 333.222 309.778 333.667 309.333C333.722 309.278 333.778 308.222 333.333 308.667z"/>
<path style="fill:#f8e1e1; stroke:none;" d="M287 309C289.052 309.874 290.747 309.953 293 310C290.948 309.126 289.253 309.047 287 309z"/>
<path style="fill:#febaba; stroke:none;" d="M174.333 310.667C174.278 310.722 174.222 311.778 174.667 311.333C174.722 311.278 174.778 310.222 174.333 310.667z"/>
<path style="fill:#fcc2c2; stroke:none;" d="M285.667 310.333C285.222 310.778 286.278 310.722 286.333 310.667C286.778 310.222 285.722 310.278 285.667 310.333z"/>
<path style="fill:#fd8383; stroke:none;" d="M287 310C289.052 310.874 290.747 310.953 293 311C290.948 310.126 289.253 310.047 287 310z"/>
<path style="fill:#fec9c9; stroke:none;" d="M293.667 310.333C293.222 310.778 294.278 310.722 294.333 310.667C294.778 310.222 293.722 310.278 293.667 310.333z"/>
<path style="fill:#fdc1c1; stroke:none;" d="M334.333 310.667C334.278 310.722 334.222 311.778 334.667 311.333C334.722 311.278 334.778 310.222 334.333 310.667z"/>
<path style="fill:#fc8585; stroke:none;" d="M284.667 311.333C284.222 311.778 285.278 311.722 285.333 311.667C285.778 311.222 284.722 311.278 284.667 311.333z"/>
<path style="fill:#ff5757; stroke:none;" d="M286 311.742C281.603 313.422 278.239 317.762 275 321L254 342C251.096 344.904 247.157 350.618 243 351.654C239.415 352.548 236.197 348.177 234 345.999C227.696 339.752 215.888 329.981 207.279 339.148C203.761 342.893 203.099 349.275 205.434 353.83C207.462 357.788 211.895 360.899 215 364C222.849 371.837 233.156 388.079 246 384.566C252.356 382.828 257.52 375.48 262 371L289 344C293.218 339.782 299.117 335.408 301.821 330C307.119 319.404 297.427 307.378 286 311.742z"/>
<path style="fill:#fce0e0; stroke:none;" d="M296.667 311.333C296.222 311.778 297.278 311.722 297.333 311.667C297.778 311.222 296.722 311.278 296.667 311.333z"/>
<path style="fill:#fd8e8e; stroke:none;" d="M335 311L335 314C335.696 312.446 335.696 312.554 335 311z"/>
<path style="fill:#fc6b6b; stroke:none;" d="M243 353C250.799 347.506 257.263 339.737 264 333C270.737 326.263 278.506 319.799 284 312C273.321 316.98 264.288 329.712 256 338C251.377 342.623 245.79 347.017 243 353z"/>
<path style="fill:#fecfcf; stroke:none;" d="M173.333 313.667C173.278 313.722 173.222 314.778 173.667 314.333C173.722 314.278 173.778 313.222 173.333 313.667z"/>
<path style="fill:#feb8b8; stroke:none;" d="M299 313L300 314L299 313z"/>
<path style="fill:#fdb2b2; stroke:none;" d="M300 314L301 315L300 314z"/>
<path style="fill:#fd9d9d; stroke:none;" d="M336.333 314.667C336.278 314.722 336.222 315.778 336.667 315.333C336.722 315.278 336.778 314.222 336.333 314.667z"/>
<path style="fill:#feb9b9; stroke:none;" d="M172.333 315.667C172.278 315.722 172.222 316.778 172.667 316.333C172.722 316.278 172.778 315.222 172.333 315.667z"/>
<path style="fill:#fec1c1; stroke:none;" d="M301 315L302 316L301 315z"/>
<path style="fill:#fddada; stroke:none;" d="M336.333 316.667C336.278 316.722 336.222 317.778 336.667 317.333C336.722 317.278 336.778 316.222 336.333 316.667z"/>
<path style="fill:#fd8585; stroke:none;" d="M337 316L337 319C337.696 317.446 337.696 317.554 337 316z"/>
<path style="fill:#fdb2b2; stroke:none;" d="M302 317L303 318L302 317z"/>
<path style="fill:#febebe; stroke:none;" d="M171.333 318.667C171.278 318.722 171.222 319.778 171.667 319.333C171.722 319.278 171.778 318.222 171.333 318.667z"/>
<path style="fill:#fec1c1; stroke:none;" d="M303.333 318.667C303.278 318.722 303.222 319.778 303.667 319.333C303.722 319.278 303.778 318.222 303.333 318.667z"/>
<path style="fill:#fd8585; stroke:none;" d="M338 319L338 322C338.696 320.446 338.696 320.554 338 319z"/>
<path style="fill:#fd8d8d; stroke:none;" d="M303.333 320.667C303.278 320.722 303.222 321.778 303.667 321.333C303.722 321.278 303.778 320.222 303.333 320.667z"/>
<path style="fill:#f9dddd; stroke:none;" d="M304 320L304 326C304.951 323.715 304.951 322.285 304 320z"/>
<path style="fill:#feb5b5; stroke:none;" d="M170.333 321.667C170.278 321.722 170.222 322.778 170.667 322.333C170.722 322.278 170.778 321.222 170.333 321.667z"/>
<path style="fill:#fd7070; stroke:none;" d="M303 322L303 326C303.71 324.24 303.71 323.759 303 322z"/>
<path style="fill:#facece; stroke:none;" d="M338.333 322.667C338.278 322.722 338.222 323.778 338.667 323.333C338.722 323.278 338.778 322.222 338.333 322.667z"/>
<path style="fill:#fd7c7c; stroke:none;" d="M339 322L339 325C339.696 323.446 339.696 323.554 339 322z"/>
<path style="fill:#fe9e9e; stroke:none;" d="M169.333 324.667C169.278 324.722 169.222 325.778 169.667 325.333C169.722 325.278 169.778 324.222 169.333 324.667z"/>
<path style="fill:#f8b7b7; stroke:none;" d="M339.333 325.667C339.278 325.722 339.222 326.778 339.667 326.333C339.722 326.278 339.778 325.222 339.333 325.667z"/>
<path style="fill:#fecdcd; stroke:none;" d="M169.333 326.667C169.278 326.722 169.222 327.778 169.667 327.333C169.722 327.278 169.778 326.222 169.333 326.667z"/>
<path style="fill:#feb9b9; stroke:none;" d="M303.333 326.667C303.278 326.722 303.222 327.778 303.667 327.333C303.722 327.278 303.778 326.222 303.333 326.667z"/>
<path style="fill:#fd7b7b; stroke:none;" d="M340 326L340 329C340.696 327.446 340.696 327.554 340 326z"/>
<path style="fill:#fd8f8f; stroke:none;" d="M168.333 328.667C168.278 328.722 168.222 329.778 168.667 329.333C168.722 329.278 168.778 328.222 168.333 328.667z"/>
<path style="fill:#fd9d9d; stroke:none;" d="M302 329L303 330L302 329z"/>
<path style="fill:#fca5a5; stroke:none;" d="M340.333 329.667C340.278 329.722 340.222 330.778 340.667 330.333C340.722 330.278 340.778 329.222 340.333 329.667z"/>
<path style="fill:#fdd4d4; stroke:none;" d="M168 330L168 334C168.71 332.24 168.71 331.759 168 330z"/>
<path style="fill:#fdb2b2; stroke:none;" d="M301 331L302 332L301 331z"/>
<path style="fill:#e9e7e7; stroke:none;" d="M340 331L340 343C341.512 339.396 341.512 334.604 340 331z"/>
<path style="fill:#fe8787; stroke:none;" d="M341 331L341 339C342.161 336.23 342.161 333.77 341 331z"/>
<path style="fill:#fd9999; stroke:none;" d="M300 332L301 333L300 332z"/>
<path style="fill:#fd8c8c; stroke:none;" d="M299 333L300 334L299 333z"/>
<path style="fill:#fd8888; stroke:none;" d="M167.333 334.667C167.278 334.722 167.222 335.778 167.667 335.333C167.722 335.278 167.778 334.222 167.333 334.667z"/>
<path style="fill:#fed2d2; stroke:none;" d="M213 334C215.052 334.874 216.747 334.953 219 335C216.948 334.126 215.253 334.047 213 334z"/>
<path style="fill:#fd8c8c; stroke:none;" d="M298 334L299 335L298 334z"/>
<path style="fill:#fdb7b7; stroke:none;" d="M211.667 335.333C211.222 335.778 212.278 335.722 212.333 335.667C212.778 335.222 211.722 335.278 211.667 335.333z"/>
<path style="fill:#fd7777; stroke:none;" d="M213 335C215.332 335.985 217.457 335.981 220 336C217.668 335.015 215.543 335.019 213 335z"/>
<path style="fill:#febaba; stroke:none;" d="M220.667 335.333C220.222 335.778 221.278 335.722 221.333 335.667C221.778 335.222 220.722 335.278 220.667 335.333z"/>
<path style="fill:#fd8c8c; stroke:none;" d="M297 335L298 336L297 335z"/>
<path style="fill:#ffc2c2; stroke:none;" d="M167 336L167 352C168.812 347.681 168.812 340.319 167 336z"/>
<path style="fill:#fddfdf; stroke:none;" d="M223.667 336.333C223.222 336.778 224.278 336.722 224.333 336.667C224.778 336.222 223.722 336.278 223.667 336.333z"/>
<path style="fill:#fd8c8c; stroke:none;" d="M296 336L297 337L296 336z"/>
<path style="fill:#fcc2c2; stroke:none;" d="M208 337L209 338L208 337z"/>
<path style="fill:#fd9494; stroke:none;" d="M224 337L225 338L224 337z"/>
<path style="fill:#fd8c8c; stroke:none;" d="M295 337L296 338L295 337z"/>
<path style="fill:#fbb6b6; stroke:none;" d="M207 338L208 339L207 338z"/>
<path style="fill:#feb8b8; stroke:none;" d="M226 338L227 339L226 338z"/>
<path style="fill:#fd8c8c; stroke:none;" d="M294 338L295 339L294 338z"/>
<path style="fill:#fcbbbb; stroke:none;" d="M206 339L207 340L206 339z"/>
<path style="fill:#fdb2b2; stroke:none;" d="M227 339L228 340L227 339z"/>
<path style="fill:#fd8c8c; stroke:none;" d="M293 339L294 340L293 339z"/>
<path style="fill:#fcdede; stroke:none;" d="M341 339L341 354C342.74 349.852 342.74 343.148 341 339z"/>
<path style="fill:#fdb1b1; stroke:none;" d="M228 340L229 341L228 340z"/>
<path style="fill:#fd8c8c; stroke:none;" d="M292 340L293 341L292 340z"/>
<path style="fill:#fe8484; stroke:none;" d="M342 340L342 354C343.667 350.028 343.667 343.972 342 340z"/>
<path style="fill:#fdb1b1; stroke:none;" d="M229 341L230 342L229 341z"/>
<path style="fill:#fd8c8c; stroke:none;" d="M291 341L292 342L291 341z"/>
<path style="fill:#fd9292; stroke:none;" d="M204.333 342.667C204.278 342.722 204.222 343.778 204.667 343.333C204.722 343.278 204.778 342.222 204.333 342.667z"/>
<path style="fill:#fdb1b1; stroke:none;" d="M230 342L231 343L230 342z"/>
<path style="fill:#fd8c8c; stroke:none;" d="M290 342L291 343L290 342z"/>
<path style="fill:#e1dddd; stroke:none;" d="M203 343C202.014 344.479 202 344.203 202 346C203.766 345.021 203.955 344.778 203 343z"/>
<path style="fill:#fdb1b1; stroke:none;" d="M231 343L232 344L231 343z"/>
<path style="fill:#fd8c8c; stroke:none;" d="M289 343L290 344L289 343z"/>
<path style="fill:#fdb1b1; stroke:none;" d="M232 344L233 345L232 344z"/>
<path style="fill:#fd8c8c; stroke:none;" d="M288 344L289 345L288 344z"/>
<path style="fill:#fdb1b1; stroke:none;" d="M233 345L234 346L233 345z"/>
<path style="fill:#fd8c8c; stroke:none;" d="M287 345L288 346L287 345z"/>
<path style="fill:#d0c5c5; stroke:none;" d="M202 346L202 351C202.83 348.969 202.83 348.031 202 346z"/>
<path style="fill:#ed8e8e; stroke:none;" d="M203 346L203 351C203.83 348.969 203.83 348.03 203 346z"/>
<path style="fill:#fdb1b1; stroke:none;" d="M234 346L235 347L234 346z"/>
<path style="fill:#fd8c8c; stroke:none;" d="M286 346L287 347L286 346z"/>
<path style="fill:#fdb1b1; stroke:none;" d="M235 347L236 348L235 347z"/>
<path style="fill:#fd8c8c; stroke:none;" d="M285 347L286 348L285 347z"/>
<path style="fill:#fdb1b1; stroke:none;" d="M236 348L237 349L236 348z"/>
<path style="fill:#fd8c8c; stroke:none;" d="M284 348L285 349L284 348z"/>
<path style="fill:#fdb1b1; stroke:none;" d="M237 349L238 350L237 349z"/>
<path style="fill:#fd8c8c; stroke:none;" d="M283 349L284 350L283 349z"/>
<path style="fill:#fdb1b1; stroke:none;" d="M238 350L239 351L238 350z"/>
<path style="fill:#fd8c8c; stroke:none;" d="M282 350L283 351L282 350z"/>
<path style="fill:#fcd7d7; stroke:none;" d="M203.333 351.667C203.278 351.722 203.222 352.778 203.667 352.333C203.722 352.278 203.778 351.222 203.333 351.667z"/>
<path style="fill:#fd8585; stroke:none;" d="M204 351L204 354C204.696 352.446 204.696 352.554 204 351z"/>
<path style="fill:#fdb1b1; stroke:none;" d="M239 351L240 352L239 351z"/>
<path style="fill:#fd8c8c; stroke:none;" d="M281 351L282 352L281 351z"/>
<path style="fill:#e0dcdc; stroke:none;" d="M340 351L340 356C340.83 353.97 340.83 353.03 340 351z"/>
<path style="fill:#fd9999; stroke:none;" d="M167 352L167 355C167.696 353.446 167.696 353.554 167 352z"/>
<path style="fill:#febcbc; stroke:none;" d="M240 352C241.248 352.685 241.548 352.749 243 353C241.752 352.315 241.452 352.251 240 352z"/>
<path style="fill:#fd8c8c; stroke:none;" d="M280 352L281 353L280 352M279 353L280 354L279 353M278 354L279 355L278 354z"/>
<path style="fill:#f6a9a9; stroke:none;" d="M341 354L341 357C341.696 355.446 341.696 355.554 341 354z"/>
<path style="fill:#fba8a8; stroke:none;" d="M205 355L206 356L205 355z"/>
<path style="fill:#fd8c8c; stroke:none;" d="M277 355L278 356L277 355z"/>
<path style="fill:#fe6363; stroke:none;" d="M206 356C210.454 362.322 216.54 367.54 222 373C226.038 377.038 229.779 381.565 235 384C230.546 377.678 224.46 372.46 219 367C214.962 362.962 211.221 358.435 206 356z"/>
<path style="fill:#fd8c8c; stroke:none;" d="M276 356L277 357L276 356z"/>
<path style="fill:#f2f1f1; stroke:none;" d="M340 356C338.946 360.279 338.189 364.595 338 369C339.934 365.363 341.221 359.97 340 356z"/>
<path style="fill:#fec7c7; stroke:none;" d="M168 357L168 360C168.696 358.446 168.696 358.554 168 357z"/>
<path style="fill:#fdf3f3; stroke:none;" d="M206 357C208.79 362.983 214.377 367.377 219 372C223.332 376.332 227.395 381.386 233 384C226.22 374.375 215.625 363.78 206 357z"/>
<path style="fill:#fd8c8c; stroke:none;" d="M275 357L276 358L275 357z"/>
<path style="fill:#fd7070; stroke:none;" d="M341 357L341 362C341.83 359.97 341.83 359.03 341 357z"/>
<path style="fill:#fd8c8c; stroke:none;" d="M274 358L275 359L274 358M273 359L274 360L273 359z"/>
<path style="fill:#f9caca; stroke:none;" d="M340 359L340 362C340.696 360.446 340.696 360.554 340 359z"/>
<path style="fill:#fd9292; stroke:none;" d="M168.333 360.667C168.278 360.722 168.222 361.778 168.667 361.333C168.722 361.278 168.778 360.222 168.333 360.667z"/>
<path style="fill:#fd8c8c; stroke:none;" d="M272 360L273 361L272 360M271 361L272 362L271 361M270 362L271 363L270 362z"/>
<path style="fill:#fd7a7a; stroke:none;" d="M340 362L340 366C340.71 364.24 340.71 363.76 340 362z"/>
<path style="fill:#fec2c2; stroke:none;" d="M169 363L169 366C169.696 364.446 169.696 364.554 169 363z"/>
<path style="fill:#fd8c8c; stroke:none;" d="M269 363L270 364L269 363M268 364L269 365L268 364M267 365L268 366L267 365z"/>
<path style="fill:#f8b2b2; stroke:none;" d="M339.333 365.667C339.278 365.722 339.222 366.778 339.667 366.333C339.722 366.278 339.778 365.222 339.333 365.667z"/>
<path style="fill:#fcd9d9; stroke:none;" d="M170 366L170 369C170.696 367.446 170.696 367.554 170 366z"/>
<path style="fill:#fd8c8c; stroke:none;" d="M266 366L267 367L266 366M265 367L266 368L265 367z"/>
<path style="fill:#fd8989; stroke:none;" d="M339 367L339 370C339.696 368.446 339.696 368.554 339 367z"/>
<path style="fill:#fd8c8c; stroke:none;" d="M264 368L265 369L264 368z"/>
<path style="fill:#fe8282; stroke:none;" d="M170.333 369.667C170.278 369.722 170.222 370.778 170.667 370.333C170.722 370.278 170.778 369.222 170.333 369.667z"/>
<path style="fill:#fd8c8c; stroke:none;" d="M263 369L264 370L263 369z"/>
<path style="fill:#fcaeae; stroke:none;" d="M338.333 369.667C338.278 369.722 338.222 370.778 338.667 370.333C338.722 370.278 338.778 369.222 338.333 369.667z"/>
<path style="fill:#fccfcf; stroke:none;" d="M171 370L171 373C171.696 371.446 171.696 371.554 171 370z"/>
<path style="fill:#fd8c8c; stroke:none;" d="M262 370L263 371L262 370M261 371L262 372L261 371M260 372L261 373L260 372z"/>
<path style="fill:#fcb1b1; stroke:none;" d="M337.333 372.667C337.278 372.722 337.222 373.778 337.667 373.333C337.722 373.278 337.778 372.222 337.333 372.667z"/>
<path style="fill:#fccfcf; stroke:none;" d="M172 373L172 376C172.696 374.446 172.696 374.554 172 373z"/>
<path style="fill:#fd8c8c; stroke:none;" d="M259 373L260 374L259 373M258 374L259 375L258 374M257 375L258 376L257 375z"/>
<path style="fill:#fcacac; stroke:none;" d="M336.333 375.667C336.278 375.722 336.222 376.778 336.667 376.333C336.722 376.278 336.778 375.222 336.333 375.667z"/>
<path style="fill:#fd8c8c; stroke:none;" d="M256 376L257 377L256 376z"/>
<path style="fill:#fd9f9f; stroke:none;" d="M173.333 377.667C173.278 377.722 173.222 378.778 173.667 378.333C173.722 378.278 173.778 377.222 173.333 377.667z"/>
<path style="fill:#fd8c8c; stroke:none;" d="M255 377L256 378L255 377M254 378L255 379L254 378z"/>
<path style="fill:#fa9c9c; stroke:none;" d="M335.333 378.667C335.278 378.722 335.222 379.778 335.667 379.333C335.722 379.278 335.778 378.222 335.333 378.667z"/>
<path style="fill:#fdb1b1; stroke:none;" d="M174.333 379.667C174.278 379.722 174.222 380.778 174.667 380.333C174.722 380.278 174.778 379.222 174.333 379.667z"/>
<path style="fill:#fd8c8c; stroke:none;" d="M253 379L254 380L253 379M252 380L253 381L252 380z"/>
<path style="fill:#fca6a6; stroke:none;" d="M334.333 380.667C334.278 380.722 334.222 381.778 334.667 381.333C334.722 381.278 334.778 380.222 334.333 380.667z"/>
<path style="fill:#fd8c8c; stroke:none;" d="M251 381L252 382L251 381z"/>
<path style="fill:#fd8787; stroke:none;" d="M175.333 382.667C175.278 382.722 175.222 383.778 175.667 383.333C175.722 383.278 175.778 382.222 175.333 382.667z"/>
<path style="fill:#fe9595; stroke:none;" d="M250 382L251 383L250 382z"/>
<path style="fill:#fcacac; stroke:none;" d="M333.333 382.667C333.278 382.722 333.222 383.778 333.667 383.333C333.722 383.278 333.778 382.222 333.333 382.667z"/>
<path style="fill:#fdaeae; stroke:none;" d="M249 383L250 384L249 383z"/>
<path style="fill:#fd8989; stroke:none;" d="M176.333 384.667C176.278 384.722 176.222 385.778 176.667 385.333C176.722 385.278 176.778 384.222 176.333 384.667z"/>
<path style="fill:#fd8888; stroke:none;" d="M234.667 384.333C234.222 384.778 235.278 384.722 235.333 384.667C235.778 384.222 234.722 384.278 234.667 384.333z"/>
<path style="fill:#fec7c7; stroke:none;" d="M247.667 384.333C247.222 384.778 248.278 384.722 248.333 384.667C248.778 384.222 247.722 384.278 247.667 384.333z"/>
<path style="fill:#fdbdbd; stroke:none;" d="M235.667 385.333C235.222 385.778 236.278 385.722 236.333 385.667C236.778 385.222 235.722 385.278 235.667 385.333z"/>
<path style="fill:#fd7777; stroke:none;" d="M237 385C239.613 386.098 242.165 385.993 245 386C242.387 384.902 239.835 385.007 237 385z"/>
<path style="fill:#fecece; stroke:none;" d="M245.667 385.333C245.222 385.778 246.278 385.722 246.333 385.667C246.778 385.222 245.722 385.278 245.667 385.333z"/>
<path style="fill:#fd8383; stroke:none;" d="M332.333 385.667C332.278 385.722 332.222 386.778 332.667 386.333C332.722 386.278 332.778 385.222 332.333 385.667z"/>
<path style="fill:#febbbb; stroke:none;" d="M177 386L178 387L177 386z"/>
<path style="fill:#fecdcd; stroke:none;" d="M238 386C240.332 386.985 242.457 386.981 245 387C242.668 386.015 240.543 386.019 238 386z"/>
<path style="fill:#fd7e7e; stroke:none;" d="M331.333 387.667C331.278 387.722 331.222 388.778 331.667 388.333C331.722 388.278 331.778 387.222 331.333 387.667z"/>
<path style="fill:#feb5b5; stroke:none;" d="M178 388L179 389L178 388z"/>
<path style="fill:#faa0a0; stroke:none;" d="M330.333 388.667C330.278 388.722 330.222 389.778 330.667 389.333C330.722 389.278 330.778 388.222 330.333 388.667z"/>
<path style="fill:#fda9a9; stroke:none;" d="M179 390L180 391L179 390z"/>
<path style="fill:#fa9393; stroke:none;" d="M329.333 390.667C329.278 390.722 329.222 391.778 329.667 391.333C329.722 391.278 329.778 390.222 329.333 390.667z"/>
<path style="fill:#fd8282; stroke:none;" d="M328.333 392.667C328.278 392.722 328.222 393.778 328.667 393.333C328.722 393.278 328.778 392.222 328.333 392.667z"/>
<path style="fill:#feb6b6; stroke:none;" d="M181 393L182 394L181 393z"/>
<path style="fill:#fd7979; stroke:none;" d="M327 394C325.739 396.01 324.81 397.778 324 400C326.153 398.115 327.41 396.888 327 394z"/>
<path style="fill:#feb6b6; stroke:none;" d="M183 396L184 397L183 396z"/>
<path style="fill:#fda4a4; stroke:none;" d="M185 399L186 400L185 399z"/>
<path style="fill:#fcbebe; stroke:none;" d="M323 399L324 400L323 399z"/>
<path style="fill:#feb8b8; stroke:none;" d="M186 400L187 401L186 400z"/>
<path style="fill:#fba4a4; stroke:none;" d="M319 404L320 405L319 404z"/>
<path style="fill:#fd9696; stroke:none;" d="M190 405L191 406L190 405z"/>
<path style="fill:#faa8a8; stroke:none;" d="M318 405L319 406L318 405z"/>
<path style="fill:#fc9999; stroke:none;" d="M191 406L192 407L191 406z"/>
<path style="fill:#fbacac; stroke:none;" d="M317 406L318 407L317 406z"/>
<path style="fill:#fd9b9b; stroke:none;" d="M192 407L193 408L192 407z"/>
<path style="fill:#fbaeae; stroke:none;" d="M316 407L317 408L316 407z"/>
<path style="fill:#fd9f9f; stroke:none;" d="M193 408L194 409L193 408z"/>
<path style="fill:#fbadad; stroke:none;" d="M315 408L316 409L315 408z"/>
<path style="fill:#fd9d9d; stroke:none;" d="M194 409L195 410L194 409z"/>
<path style="fill:#fbadad; stroke:none;" d="M314 409L315 410L314 409z"/>
<path style="fill:#fd9c9c; stroke:none;" d="M195 410L196 411L195 410z"/>
<path style="fill:#fbabab; stroke:none;" d="M313 410L314 411L313 410z"/>
<path style="fill:#fd9898; stroke:none;" d="M196 411L197 412L196 411z"/>
<path style="fill:#fda5a5; stroke:none;" d="M312 411L313 412L312 411z"/>
<path style="fill:#fdb1b1; stroke:none;" d="M200 414L201 415L200 414z"/>
<path style="fill:#fcc0c0; stroke:none;" d="M308 414L309 415L308 414z"/>
<path style="fill:#fd9f9f; stroke:none;" d="M201 415L202 416L201 415z"/>
<path style="fill:#fdadad; stroke:none;" d="M307 415L308 416L307 415z"/>
<path style="fill:#fd6868; stroke:none;" d="M302 419C304.888 419.41 306.115 418.153 308 416C305.778 416.81 304.01 417.739 302 419z"/>
<path style="fill:#fcbebe; stroke:none;" d="M304 417L305 418L304 417z"/>
<path style="fill:#fc9c9c; stroke:none;" d="M205 418L206 419L205 418z"/>
<path style="fill:#fcc1c1; stroke:none;" d="M301 419L302 420L301 419z"/>
<path style="fill:#facaca; stroke:none;" d="M208.667 420.333C208.222 420.778 209.278 420.722 209.333 420.667C209.778 420.222 208.722 420.278 208.667 420.333z"/>
<path style="fill:#fbd4d4; stroke:none;" d="M210.667 421.333C210.222 421.778 211.278 421.722 211.333 421.667C211.778 421.222 210.722 421.278 210.667 421.333z"/>
<path style="fill:#fd8383; stroke:none;" d="M298.667 421.333C298.222 421.778 299.278 421.722 299.333 421.667C299.778 421.222 298.722 421.278 298.667 421.333z"/>
<path style="fill:#fbdada; stroke:none;" d="M212.667 422.333C212.222 422.778 213.278 422.722 213.333 422.667C213.778 422.222 212.722 422.278 212.667 422.333z"/>
<path style="fill:#fc8a8a; stroke:none;" d="M296.667 422.333C296.222 422.778 297.278 422.722 297.333 422.667C297.778 422.222 296.722 422.278 296.667 422.333z"/>
<path style="fill:#feb7b7; stroke:none;" d="M213.667 423.333C213.222 423.778 214.278 423.722 214.333 423.667C214.778 423.222 213.722 423.278 213.667 423.333z"/>
<path style="fill:#fc9191; stroke:none;" d="M294.667 423.333C294.222 423.778 295.278 423.722 295.333 423.667C295.778 423.222 294.722 423.278 294.667 423.333z"/>
<path style="fill:#febcbc; stroke:none;" d="M215.667 424.333C215.222 424.778 216.278 424.722 216.333 424.667C216.778 424.222 215.722 424.278 215.667 424.333z"/>
<path style="fill:#fd9595; stroke:none;" d="M292.667 424.333C292.222 424.778 293.278 424.722 293.333 424.667C293.778 424.222 292.722 424.278 292.667 424.333z"/>
<path style="fill:#feb9b9; stroke:none;" d="M217.667 425.333C217.222 425.778 218.278 425.722 218.333 425.667C218.778 425.222 217.722 425.278 217.667 425.333z"/>
<path style="fill:#fd9494; stroke:none;" d="M290.667 425.333C290.222 425.778 291.278 425.722 291.333 425.667C291.778 425.222 290.722 425.278 290.667 425.333z"/>
<path style="fill:#fdadad; stroke:none;" d="M219.667 426.333C219.222 426.778 220.278 426.722 220.333 426.667C220.778 426.222 219.722 426.278 219.667 426.333z"/>
<path style="fill:#fdb4b4; stroke:none;" d="M287.667 426.333C287.222 426.778 288.278 426.722 288.333 426.667C288.778 426.222 287.722 426.278 287.667 426.333z"/>
<path style="fill:#fd7979; stroke:none;" d="M220 427C221.248 427.685 221.548 427.749 223 428C221.752 427.315 221.452 427.251 220 427z"/>
<path style="fill:#fbdada; stroke:none;" d="M223.667 427.333C223.222 427.778 224.278 427.722 224.333 427.667C224.778 427.222 223.722 427.278 223.667 427.333z"/>
<path style="fill:#fec3c3; stroke:none;" d="M284.667 427.333C284.222 427.778 285.278 427.722 285.333 427.667C285.778 427.222 284.722 427.278 284.667 427.333z"/>
<path style="fill:#fd8080; stroke:none;" d="M286.667 427.333C286.222 427.778 287.278 427.722 287.333 427.667C287.778 427.222 286.722 427.278 286.667 427.333z"/>
<path style="fill:#fd8484; stroke:none;" d="M223 428C224.248 428.685 224.548 428.749 226 429C224.752 428.315 224.452 428.251 223 428z"/>
<path style="fill:#fbd8d8; stroke:none;" d="M226.667 428.333C226.222 428.778 227.278 428.722 227.333 428.667C227.778 428.222 226.722 428.278 226.667 428.333z"/>
<path style="fill:#fddbdb; stroke:none;" d="M280 428C281.248 428.685 281.548 428.749 283 429C281.752 428.315 281.452 428.251 280 428z"/>
<path style="fill:#fc8787; stroke:none;" d="M283.667 428.333C283.222 428.778 284.278 428.722 284.333 428.667C284.778 428.222 283.722 428.278 283.667 428.333z"/>
<path style="fill:#fd8080; stroke:none;" d="M226 429C227.248 429.685 227.548 429.749 229 430C227.752 429.315 227.452 429.251 226 429z"/>
<path style="fill:#fbd2d2; stroke:none;" d="M229.667 429.333C229.222 429.778 230.278 429.722 230.333 429.667C230.778 429.222 229.722 429.278 229.667 429.333z"/>
<path style="fill:#fdd6d6; stroke:none;" d="M277 429C278.248 429.685 278.548 429.749 280 430C278.752 429.315 278.452 429.251 277 429z"/>
<path style="fill:#fd8282; stroke:none;" d="M280.667 429.333C280.222 429.778 281.278 429.722 281.333 429.667C281.778 429.222 280.722 429.278 280.667 429.333z"/>
<path style="fill:#fd7b7b; stroke:none;" d="M229 430C230.248 430.685 230.548 430.749 232 431C230.752 430.315 230.452 430.251 229 430z"/>
<path style="fill:#fec8c8; stroke:none;" d="M232.667 430.333C232.222 430.778 233.278 430.722 233.333 430.667C233.778 430.222 232.722 430.278 232.667 430.333z"/>
<path style="fill:#fddcdc; stroke:none;" d="M273 430C274.248 430.685 274.548 430.749 276 431C274.752 430.315 274.452 430.251 273 430z"/>
<path style="fill:#fc9595; stroke:none;" d="M276.667 430.333C276.222 430.778 277.278 430.722 277.333 430.667C277.778 430.222 276.722 430.278 276.667 430.333z"/>
<path style="fill:#fdaeae; stroke:none;" d="M235.667 431.333C235.222 431.778 236.278 431.722 236.333 431.667C236.778 431.222 235.722 431.278 235.667 431.333z"/>
<path style="fill:#fae6e6; stroke:none;" d="M237 431C238.506 431.683 239.315 431.826 241 432C239.494 431.317 238.685 431.174 237 431z"/>
<path style="fill:#fec3c3; stroke:none;" d="M270 431C271.248 431.685 271.548 431.749 273 432C271.752 431.315 271.452 431.251 270 431z"/>
<path style="fill:#fc9090; stroke:none;" d="M239.667 432.333C239.222 432.778 240.278 432.722 240.333 432.667C240.778 432.222 239.722 432.278 239.667 432.333z"/>
<path style="fill:#fec6c6; stroke:none;" d="M241 432C242.506 432.683 243.315 432.826 245 433C243.494 432.317 242.685 432.174 241 432z"/>
<path style="fill:#fbeded; stroke:none;" d="M245 432C250.715 434.398 258.831 433 265 433C259.285 430.602 251.169 432 245 432z"/>
<path style="fill:#fdb1b1; stroke:none;" d="M265 432C266.248 432.685 266.548 432.749 268 433C266.752 432.315 266.452 432.251 265 432z"/>
<path style="fill:#fd8181; stroke:none;" d="M243 433C244.769 433.779 246.036 433.912 248 434C246.231 433.221 244.964 433.088 243 433z"/>
<path style="fill:#fda1a1; stroke:none;" d="M248 433C251.697 434.552 256.017 434 260 434C256.303 432.448 251.983 433 248 433z"/>
<path style="fill:#fd7777; stroke:none;" d="M260 433C262.613 434.098 265.165 433.993 268 434C265.387 432.902 262.836 433.007 260 433z"/>
<path style="fill:#f8c2c2; stroke:none;" d="M92.3333 454.667C92.2778 454.722 92.2222 455.778 92.6667 455.333C92.7222 455.278 92.7778 454.222 92.3333 454.667z"/>
<path style="fill:#fe9c9c; stroke:none;" d="M416.333 454.667C416.278 454.722 416.222 455.778 416.667 455.333C416.722 455.278 416.778 454.222 416.333 454.667z"/>
<path style="fill:#fecaca; stroke:none;" d="M416.333 456.667C416.278 456.722 416.222 457.778 416.667 457.333C416.722 457.278 416.778 456.222 416.333 456.667z"/>
<path style="fill:#fca4a4; stroke:none;" d="M93.3333 457.667C93.2778 457.722 93.2222 458.778 93.6667 458.333C93.7222 458.278 93.7778 457.222 93.3333 457.667z"/>
<path style="fill:#fd8e8e; stroke:none;" d="M94 459L94 462C94.6961 460.446 94.6961 460.554 94 459z"/>
<path style="fill:#fecbcb; stroke:none;" d="M415.333 459.667C415.278 459.722 415.222 460.778 415.667 460.333C415.722 460.278 415.778 459.222 415.333 459.667z"/>
<path style="fill:#febfbf; stroke:none;" d="M414.333 461.667C414.278 461.722 414.222 462.778 414.667 462.333C414.722 462.278 414.778 461.222 414.333 461.667z"/>
<path style="fill:#fdafaf; stroke:none;" d="M95.3333 462.667C95.2778 462.722 95.2222 463.778 95.6667 463.333C95.7222 463.278 95.7778 462.222 95.3333 462.667z"/>
<path style="fill:#fda2a2; stroke:none;" d="M412 465L413 466L412 465z"/>
<path style="fill:#fd9e9e; stroke:none;" d="M97 466L98 467L97 466z"/>
<path style="fill:#fd8b8b; stroke:none;" d="M411 466L412 467L411 466z"/>
<path style="fill:#feb9b9; stroke:none;" d="M410 468L411 469L410 468z"/>
<path style="fill:#fdadad; stroke:none;" d="M409 469L410 470L409 469z"/>
<path style="fill:#fcbaba; stroke:none;" d="M100 470L101 471L100 470z"/>
<path style="fill:#fda9a9; stroke:none;" d="M408 470L409 471L408 470z"/>
<path style="fill:#fcbdbd; stroke:none;" d="M101 471L102 472L101 471z"/>
<path style="fill:#fdb4b4; stroke:none;" d="M407 471L408 472L407 471z"/>
<path style="fill:#fd9898; stroke:none;" d="M404 473L405 474L404 473z"/>
<path style="fill:#fd9292; stroke:none;" d="M105.667 474.333C105.222 474.778 106.278 474.722 106.333 474.667C106.778 474.222 105.722 474.278 105.667 474.333z"/>
<path style="fill:#fd8989; stroke:none;" d="M107.667 475.333C107.222 475.778 108.278 475.722 108.333 475.667C108.778 475.222 107.722 475.278 107.667 475.333z"/>
<path style="fill:#fd9292; stroke:none;" d="M109.667 476.333C109.222 476.778 110.278 476.722 110.333 476.667C110.778 476.222 109.722 476.278 109.667 476.333z"/>
<path style="fill:#fd8a8a; stroke:none;" d="M397 476C398.248 476.685 398.548 476.749 400 477C398.752 476.315 398.452 476.251 397 476z"/>
<path style="fill:#fdaeae; stroke:none;" d="M111.667 477.333C111.222 477.778 112.278 477.722 112.333 477.667C112.778 477.222 111.722 477.278 111.667 477.333z"/>
<path style="fill:#fd8080; stroke:none;" d="M113 477C114.248 477.685 114.548 477.749 116 478C114.752 477.315 114.452 477.251 113 477z"/>
<path style="fill:#fd8c8c; stroke:none;" d="M394 477C395.248 477.685 395.548 477.749 397 478C395.752 477.315 395.452 477.251 394 477z"/>
<path style="fill:#fd9999; stroke:none;" d="M115 478C121.919 480.903 132.52 479 140 479L196 479L390 479C383.081 476.097 372.48 478 365 478L309 478L115 478z"/>
<path style="fill:#feb8b8; stroke:none;" d="M390 478C391.248 478.685 391.548 478.749 393 479C391.752 478.315 391.452 478.251 390 478z"/>
<path style="fill:#fdf0f0; stroke:none;" d="M116 479C122.919 481.903 133.52 480 141 480L197 480L390 480C383.081 477.097 372.48 479 365 479L309 479L116 479z"/>
</svg>
